<mxfile host="app.diagrams.net" modified="2024-04-08T03:46:26.899Z" agent="Mozilla/5.0 (Windows NT 10.0; Win64; x64) AppleWebKit/537.36 (KHTML, like Gecko) Chrome/123.0.0.0 Safari/537.36" etag="XXgR4Wn_ZmFTEapxPhWn" version="24.0.4" type="device">
  <diagram name="Page-1" id="0eoELQhlhSM3skjZlkBy">
    <mxGraphModel dx="3294" dy="1754" grid="1" gridSize="10" guides="1" tooltips="1" connect="1" arrows="1" fold="1" page="1" pageScale="1" pageWidth="850" pageHeight="1100" math="0" shadow="0">
      <root>
        <mxCell id="0" />
        <mxCell id="1" parent="0" />
        <mxCell id="ClowfGeDwB7Z-Gp7cLXi-1" value="DatabaseInitializer" style="swimlane;fontStyle=1;align=center;verticalAlign=top;childLayout=stackLayout;horizontal=1;startSize=26;horizontalStack=0;resizeParent=1;resizeParentMax=0;resizeLast=0;collapsible=1;marginBottom=0;whiteSpace=wrap;html=1;" parent="1" vertex="1">
          <mxGeometry x="320" y="280" width="720" height="1180" as="geometry" />
        </mxCell>
        <mxCell id="ClowfGeDwB7Z-Gp7cLXi-2" value="&lt;div&gt;- managerHandler : EmployeeHandler&amp;nbsp;&lt;/div&gt;&lt;div&gt;- staffHandler : EmployeeHandler&amp;nbsp;&lt;/div&gt;&lt;div&gt;- salerHandler : EmployeeHandler&lt;/div&gt;&lt;div&gt;- complaintChainHead : EmployeeHandler&amp;nbsp;&lt;/div&gt;&lt;div&gt;- currentUserID : String&lt;/div&gt;&lt;div&gt;- scanner : Scanner&lt;/div&gt;" style="text;strokeColor=none;fillColor=none;align=left;verticalAlign=top;spacingLeft=4;spacingRight=4;overflow=hidden;rotatable=0;points=[[0,0.5],[1,0.5]];portConstraint=eastwest;whiteSpace=wrap;html=1;" parent="ClowfGeDwB7Z-Gp7cLXi-1" vertex="1">
          <mxGeometry y="26" width="720" height="94" as="geometry" />
        </mxCell>
        <mxCell id="ClowfGeDwB7Z-Gp7cLXi-3" value="" style="line;strokeWidth=1;fillColor=none;align=left;verticalAlign=middle;spacingTop=-1;spacingLeft=3;spacingRight=3;rotatable=0;labelPosition=right;points=[];portConstraint=eastwest;strokeColor=inherit;" parent="ClowfGeDwB7Z-Gp7cLXi-1" vertex="1">
          <mxGeometry y="120" width="720" height="8" as="geometry" />
        </mxCell>
        <mxCell id="ClowfGeDwB7Z-Gp7cLXi-4" value="&lt;div&gt;+ DatabaseInitializer()&lt;/div&gt;&lt;div&gt;- createMoviesTable() : void&lt;/div&gt;&lt;div&gt;- createAdvertisementsTable() : void&lt;/div&gt;&lt;div&gt;- createEmployeesTable() : void&lt;/div&gt;&lt;div&gt;- createCustomersTable() : void&lt;/div&gt;&lt;div&gt;- createCinemaHallsTable() : void&lt;/div&gt;&lt;div&gt;- createSeatsTable() : void&lt;/div&gt;&lt;div&gt;- createShowtimesTable() : void&lt;/div&gt;&lt;div&gt;- createReservationsTable () : void&amp;nbsp;&lt;/div&gt;&lt;div&gt;- createComplaintsTable () : void&lt;/div&gt;&lt;div&gt;+ createNewTables() : void&lt;/div&gt;&lt;div&gt;- executesql (sql: String) : void&amp;nbsp;&lt;/div&gt;&lt;div&gt;+ getCurrentEmployeeRole() : String&lt;/div&gt;&lt;div&gt;+ performEmployeeLogin() : boolean&lt;/div&gt;&lt;div&gt;+ performCustomerLogin() : boolean&lt;/div&gt;&lt;div&gt;+ insertSampleData() : void&lt;/div&gt;&lt;div&gt;+ insertMovie (movie : Movie) : void&lt;/div&gt;&lt;div&gt;+ insertSampleMovies () : void&lt;/div&gt;&lt;div&gt;+ insertAdvertisement (advertisement: Advertisement) : void&lt;/div&gt;&lt;div&gt;+ insertSampleAdvertisements() : void&lt;/div&gt;&lt;div&gt;+ insertEmployee (employee : Employee)&amp;nbsp; : void&amp;nbsp;&lt;/div&gt;&lt;div&gt;+ insertSampleEmployees () : void&lt;/div&gt;&lt;div&gt;+ insertCustomer (customer: Customer) : void&amp;nbsp;&lt;/div&gt;&lt;div&gt;+ insertSampleCustomers() : void&lt;/div&gt;&lt;div&gt;+ insertSampleCinemaHalls(): void&lt;/div&gt;&lt;div&gt;+ insertSampleShowtimes(): void&lt;/div&gt;&lt;div&gt;+ insertSampleReservations() : void&lt;/div&gt;&lt;div&gt;+ insert SampleSeats() : void&lt;/div&gt;&lt;div&gt;- getAllHall Ids() : List&amp;lt;String&amp;gt;&lt;/div&gt;&lt;div&gt;- insertSeatsForHall (hallId: String) : void&lt;/div&gt;&lt;div&gt;- getValidShowtimeIdsForHall (hallId : String) : List&amp;lt;Integer&amp;gt;&amp;nbsp;&lt;/div&gt;&lt;div&gt;+ insertSampleComplaints () : void&lt;/div&gt;&lt;div&gt;+ displayAllMovies () : void&lt;/div&gt;&lt;div&gt;+ displayAllEmployees () : void&lt;/div&gt;&lt;div&gt;+ searchForMovie () : void&lt;/div&gt;&lt;div&gt;+ displayAllAdvertisements() : void&amp;nbsp;&lt;/div&gt;&lt;div&gt;+ searchForAdvertisement() : void&lt;/div&gt;&lt;div&gt;+ displayAllCustomers() : void&lt;/div&gt;&lt;div&gt;+ addNewCustomer() : void&lt;/div&gt;&lt;div&gt;+ displayAllReservations() : void&lt;/div&gt;&lt;div&gt;+ cancelReservation() : void&lt;/div&gt;&lt;div&gt;+ cancelReservationByEmployee() : void&amp;nbsp;&lt;/div&gt;&lt;div&gt;+ searchForCustomer() : void&lt;/div&gt;&lt;div&gt;+ addNewMovie() : void&lt;/div&gt;&lt;div&gt;+ addNewAdvertisement() : void&lt;/div&gt;&lt;div&gt;+ addNewEmployee() : void&lt;/div&gt;&lt;div&gt;+ removeMovie() : void&lt;/div&gt;&lt;div&gt;+ removeAdvertisement ()&amp;nbsp; : void&lt;/div&gt;&lt;div&gt;+ displayMoviesBasedOnAge() : void&lt;/div&gt;&lt;div&gt;- getCustomerDOB (customerId: String) : LocalDate&lt;/div&gt;&lt;div&gt;- getHallLayout (hallId: String) : int[]&lt;/div&gt;&lt;div&gt;+ displaySeatMatrixWithNumbers(hallId : String, showtimeId : int) : void&lt;/div&gt;&lt;div&gt;- getSeatStatus (hallId : String, row : char, seatNum : int, showtimeId : int) : String&lt;/div&gt;&lt;div&gt;+ reserveMovie () : void&lt;/div&gt;&lt;div&gt;+ reserveSeatsForShowtime_CustomerUsing(customerId : String, showtimeId : int, hallId : String, selectedSeats : String[]) : boolean&amp;nbsp;&lt;/div&gt;&lt;div&gt;+ reserveMovieForCustomers() : void&lt;/div&gt;&lt;div&gt;- validateCustomerId(customerId : String) : boolean&lt;/div&gt;&lt;div&gt;- getAvailableSeats(hallid: String, showtimeId : int) : int&lt;/div&gt;&lt;div&gt;- getHallCapacity (hallId : String) : int&lt;/div&gt;&lt;div&gt;+ displayShowtimesForMovie(movieId : String) : boolean&lt;/div&gt;&lt;div&gt;+ getHallIdForShowtime(showtimeId : int) : String&lt;/div&gt;&lt;div&gt;+ reserveSeatsForShowtime(customerId : String, showtimeId : int, hallId : String, selectedSeats : String[], employeeId : String) : boolean&amp;nbsp;&lt;/div&gt;&lt;div&gt;- promptForInt(message : String) : int&lt;/div&gt;&lt;div&gt;- promptForDouble(message : String) : double&lt;/div&gt;&lt;div&gt;+ getEmployeeIdByRole(role : String) : String&lt;/div&gt;&lt;div&gt;+ setupComplaintHandlingChain() : void&lt;/div&gt;&lt;div&gt;+ sendComplaint() : void&lt;/div&gt;&lt;div&gt;- insertComplaintIntoDatabase (complaint : Complaint) : int&lt;/div&gt;&lt;div&gt;+ viewAssignedComplaints(): void&lt;/div&gt;&lt;div&gt;+ handleAndResolveComplaint() : void&lt;/div&gt;&lt;div&gt;- updateComplaintResolution(complaintId : int, resolution : String) : void&lt;/div&gt;" style="text;strokeColor=none;fillColor=none;align=left;verticalAlign=top;spacingLeft=4;spacingRight=4;overflow=hidden;rotatable=0;points=[[0,0.5],[1,0.5]];portConstraint=eastwest;whiteSpace=wrap;html=1;" parent="ClowfGeDwB7Z-Gp7cLXi-1" vertex="1">
          <mxGeometry y="128" width="720" height="1052" as="geometry" />
        </mxCell>
        <mxCell id="9-IgjQardN9TOyDx4zbD-1" style="rounded=0;orthogonalLoop=1;jettySize=auto;html=1;entryX=0.5;entryY=0;entryDx=0;entryDy=0;endArrow=diamondThin;endFill=1;endSize=14;" edge="1" parent="1" source="ClowfGeDwB7Z-Gp7cLXi-5" target="ClowfGeDwB7Z-Gp7cLXi-11">
          <mxGeometry relative="1" as="geometry" />
        </mxCell>
        <mxCell id="ClowfGeDwB7Z-Gp7cLXi-5" value="EnglishFactory" style="swimlane;fontStyle=0;childLayout=stackLayout;horizontal=1;startSize=26;fillColor=none;horizontalStack=0;resizeParent=1;resizeParentMax=0;resizeLast=0;collapsible=1;marginBottom=0;whiteSpace=wrap;html=1;" parent="1" vertex="1">
          <mxGeometry x="2240" y="270" width="540" height="70" as="geometry" />
        </mxCell>
        <mxCell id="ClowfGeDwB7Z-Gp7cLXi-6" value="&lt;div&gt;+ createMovie(title : String, duration : int, genre : String, ageRestriction : int, price : double) : Movie&lt;/div&gt;&lt;div&gt;+ createAdvertisement(title : String, duration : int, ageRestriction : int) : Advertisement&lt;/div&gt;" style="text;strokeColor=none;fillColor=none;align=left;verticalAlign=top;spacingLeft=4;spacingRight=4;overflow=hidden;rotatable=0;points=[[0,0.5],[1,0.5]];portConstraint=eastwest;whiteSpace=wrap;html=1;" parent="ClowfGeDwB7Z-Gp7cLXi-5" vertex="1">
          <mxGeometry y="26" width="540" height="44" as="geometry" />
        </mxCell>
        <mxCell id="9-IgjQardN9TOyDx4zbD-2" style="rounded=0;orthogonalLoop=1;jettySize=auto;html=1;endArrow=diamondThin;endFill=1;endSize=14;" edge="1" parent="1" source="ClowfGeDwB7Z-Gp7cLXi-9" target="ClowfGeDwB7Z-Gp7cLXi-14">
          <mxGeometry relative="1" as="geometry">
            <mxPoint x="2510" y="590" as="targetPoint" />
          </mxGeometry>
        </mxCell>
        <mxCell id="ClowfGeDwB7Z-Gp7cLXi-9" value="FrenchFactory" style="swimlane;fontStyle=0;childLayout=stackLayout;horizontal=1;startSize=26;fillColor=none;horizontalStack=0;resizeParent=1;resizeParentMax=0;resizeLast=0;collapsible=1;marginBottom=0;whiteSpace=wrap;html=1;" parent="1" vertex="1">
          <mxGeometry x="2240" y="660" width="540" height="70" as="geometry" />
        </mxCell>
        <mxCell id="ClowfGeDwB7Z-Gp7cLXi-10" value="&lt;div&gt;+ createMovie(title : String, duration : int, genre : String, ageRestriction : int, price : double) : Movie&lt;/div&gt;&lt;div&gt;+ createAdvertisement(title : String, duration : int, ageRestriction : int) : Advertisement&lt;/div&gt;" style="text;strokeColor=none;fillColor=none;align=left;verticalAlign=top;spacingLeft=4;spacingRight=4;overflow=hidden;rotatable=0;points=[[0,0.5],[1,0.5]];portConstraint=eastwest;whiteSpace=wrap;html=1;" parent="ClowfGeDwB7Z-Gp7cLXi-9" vertex="1">
          <mxGeometry y="26" width="540" height="44" as="geometry" />
        </mxCell>
        <mxCell id="ClowfGeDwB7Z-Gp7cLXi-11" value="AbstractFactory" style="swimlane;fontStyle=1;align=center;verticalAlign=top;childLayout=stackLayout;horizontal=1;startSize=26;horizontalStack=0;resizeParent=1;resizeParentMax=0;resizeLast=0;collapsible=1;marginBottom=0;whiteSpace=wrap;html=1;" parent="1" vertex="1">
          <mxGeometry x="2240" y="430" width="540" height="150" as="geometry" />
        </mxCell>
        <mxCell id="ClowfGeDwB7Z-Gp7cLXi-12" value="&lt;u&gt;~ EnglishFactory : EnglishFactory&lt;/u&gt;&lt;div&gt;&lt;u&gt;~ FrenchFactory : FrenchFactory&lt;/u&gt;&lt;/div&gt;" style="text;strokeColor=none;fillColor=none;align=left;verticalAlign=top;spacingLeft=4;spacingRight=4;overflow=hidden;rotatable=0;points=[[0,0.5],[1,0.5]];portConstraint=eastwest;whiteSpace=wrap;html=1;" parent="ClowfGeDwB7Z-Gp7cLXi-11" vertex="1">
          <mxGeometry y="26" width="540" height="44" as="geometry" />
        </mxCell>
        <mxCell id="ClowfGeDwB7Z-Gp7cLXi-13" value="" style="line;strokeWidth=1;fillColor=none;align=left;verticalAlign=middle;spacingTop=-1;spacingLeft=3;spacingRight=3;rotatable=0;labelPosition=right;points=[];portConstraint=eastwest;strokeColor=inherit;" parent="ClowfGeDwB7Z-Gp7cLXi-11" vertex="1">
          <mxGeometry y="70" width="540" height="8" as="geometry" />
        </mxCell>
        <mxCell id="ClowfGeDwB7Z-Gp7cLXi-14" value="&lt;div&gt;+ AbstractFactory()&lt;/div&gt;&lt;div&gt;&lt;u&gt;+ factory (language : Language) : AbstractFactory&lt;/u&gt;&lt;/div&gt;&lt;div&gt;+ createMovie (title : String, duration : int, genre : String, ageRestriction : int, price : double) : Movie&lt;/div&gt;&lt;div&gt;+ createAdvertisement(title : String, duration : int, ageRestriction : int) : Advertisement&lt;/div&gt;" style="text;strokeColor=none;fillColor=none;align=left;verticalAlign=top;spacingLeft=4;spacingRight=4;overflow=hidden;rotatable=0;points=[[0,0.5],[1,0.5]];portConstraint=eastwest;whiteSpace=wrap;html=1;" parent="ClowfGeDwB7Z-Gp7cLXi-11" vertex="1">
          <mxGeometry y="78" width="540" height="72" as="geometry" />
        </mxCell>
        <mxCell id="ClowfGeDwB7Z-Gp7cLXi-15" value="MovieMaker" style="swimlane;fontStyle=1;align=center;verticalAlign=top;childLayout=stackLayout;horizontal=1;startSize=26;horizontalStack=0;resizeParent=1;resizeParentMax=0;resizeLast=0;collapsible=1;marginBottom=0;whiteSpace=wrap;html=1;" parent="1" vertex="1">
          <mxGeometry x="1790" y="920" width="530" height="110" as="geometry" />
        </mxCell>
        <mxCell id="ClowfGeDwB7Z-Gp7cLXi-16" value="- iMovieBuilder : iMovieBuilder" style="text;strokeColor=none;fillColor=none;align=left;verticalAlign=top;spacingLeft=4;spacingRight=4;overflow=hidden;rotatable=0;points=[[0,0.5],[1,0.5]];portConstraint=eastwest;whiteSpace=wrap;html=1;" parent="ClowfGeDwB7Z-Gp7cLXi-15" vertex="1">
          <mxGeometry y="26" width="530" height="24" as="geometry" />
        </mxCell>
        <mxCell id="ClowfGeDwB7Z-Gp7cLXi-17" value="" style="line;strokeWidth=1;fillColor=none;align=left;verticalAlign=middle;spacingTop=-1;spacingLeft=3;spacingRight=3;rotatable=0;labelPosition=right;points=[];portConstraint=eastwest;strokeColor=inherit;" parent="ClowfGeDwB7Z-Gp7cLXi-15" vertex="1">
          <mxGeometry y="50" width="530" height="8" as="geometry" />
        </mxCell>
        <mxCell id="ClowfGeDwB7Z-Gp7cLXi-18" value="&lt;div&gt;+ MovieMaker(iMovieBuilder : IMovieBuilder)&lt;/div&gt;&lt;div&gt;+ makeMovie(title : String, duration : int, genre : String, ageRestriction : int, price : double) : void&amp;nbsp;&lt;/div&gt;&lt;div&gt;+ getMovie()&amp;nbsp; : Movie&lt;/div&gt;" style="text;strokeColor=none;fillColor=none;align=left;verticalAlign=top;spacingLeft=4;spacingRight=4;overflow=hidden;rotatable=0;points=[[0,0.5],[1,0.5]];portConstraint=eastwest;whiteSpace=wrap;html=1;" parent="ClowfGeDwB7Z-Gp7cLXi-15" vertex="1">
          <mxGeometry y="58" width="530" height="52" as="geometry" />
        </mxCell>
        <mxCell id="ClowfGeDwB7Z-Gp7cLXi-19" value="Customer" style="swimlane;fontStyle=1;align=center;verticalAlign=top;childLayout=stackLayout;horizontal=1;startSize=26;horizontalStack=0;resizeParent=1;resizeParentMax=0;resizeLast=0;collapsible=1;marginBottom=0;whiteSpace=wrap;html=1;" parent="1" vertex="1">
          <mxGeometry x="1200" y="1160" width="550" height="260" as="geometry" />
        </mxCell>
        <mxCell id="ClowfGeDwB7Z-Gp7cLXi-20" value="- paymentMethod : PaymentMethod&lt;div&gt;- points : int&lt;/div&gt;&lt;div&gt;&lt;u&gt;- customerCounter : int&lt;/u&gt;&lt;/div&gt;" style="text;strokeColor=none;fillColor=none;align=left;verticalAlign=top;spacingLeft=4;spacingRight=4;overflow=hidden;rotatable=0;points=[[0,0.5],[1,0.5]];portConstraint=eastwest;whiteSpace=wrap;html=1;" parent="ClowfGeDwB7Z-Gp7cLXi-19" vertex="1">
          <mxGeometry y="26" width="550" height="54" as="geometry" />
        </mxCell>
        <mxCell id="ClowfGeDwB7Z-Gp7cLXi-21" value="" style="line;strokeWidth=1;fillColor=none;align=left;verticalAlign=middle;spacingTop=-1;spacingLeft=3;spacingRight=3;rotatable=0;labelPosition=right;points=[];portConstraint=eastwest;strokeColor=inherit;" parent="ClowfGeDwB7Z-Gp7cLXi-19" vertex="1">
          <mxGeometry y="80" width="550" height="8" as="geometry" />
        </mxCell>
        <mxCell id="ClowfGeDwB7Z-Gp7cLXi-22" value="&lt;div&gt;+ Customer()&lt;/div&gt;&lt;div&gt;+ Customer(name : String, birthdate : String, payment_method : PaymentMethod, password : String)&amp;nbsp;&lt;/div&gt;&lt;div&gt;+ increasePoints(newPoints&amp;nbsp; : int) : void&lt;/div&gt;&lt;div&gt;+ getPoints() : int&lt;/div&gt;&lt;div&gt;+ setPoints (points : int) : void&lt;/div&gt;&lt;div&gt;+ getPaymentMethod() : PaymentMethod&lt;/div&gt;&lt;div&gt;+ setPaymentMethod(paymentMethod : PaymentMethod) : void&lt;/div&gt;&lt;div&gt;+ setId() : void&lt;/div&gt;&lt;div&gt;+ setId(id : String) : void&lt;/div&gt;&lt;div&gt;&lt;u&gt;+ getNextCustomerId() : String&lt;/u&gt;&lt;/div&gt;&lt;div&gt;# display() : void&lt;/div&gt;" style="text;strokeColor=none;fillColor=none;align=left;verticalAlign=top;spacingLeft=4;spacingRight=4;overflow=hidden;rotatable=0;points=[[0,0.5],[1,0.5]];portConstraint=eastwest;whiteSpace=wrap;html=1;" parent="ClowfGeDwB7Z-Gp7cLXi-19" vertex="1">
          <mxGeometry y="88" width="550" height="172" as="geometry" />
        </mxCell>
        <mxCell id="9-IgjQardN9TOyDx4zbD-7" style="rounded=0;orthogonalLoop=1;jettySize=auto;html=1;entryX=0.5;entryY=0;entryDx=0;entryDy=0;endArrow=diamondThin;endFill=1;endSize=14;" edge="1" parent="1" source="ClowfGeDwB7Z-Gp7cLXi-23" target="ClowfGeDwB7Z-Gp7cLXi-63">
          <mxGeometry relative="1" as="geometry" />
        </mxCell>
        <mxCell id="ClowfGeDwB7Z-Gp7cLXi-23" value="SalerHandler" style="swimlane;fontStyle=1;align=center;verticalAlign=top;childLayout=stackLayout;horizontal=1;startSize=26;horizontalStack=0;resizeParent=1;resizeParentMax=0;resizeLast=0;collapsible=1;marginBottom=0;whiteSpace=wrap;html=1;" parent="1" vertex="1">
          <mxGeometry x="1340" y="470" width="270" height="100" as="geometry" />
        </mxCell>
        <mxCell id="ClowfGeDwB7Z-Gp7cLXi-24" value="- employeeId : String" style="text;strokeColor=none;fillColor=none;align=left;verticalAlign=top;spacingLeft=4;spacingRight=4;overflow=hidden;rotatable=0;points=[[0,0.5],[1,0.5]];portConstraint=eastwest;whiteSpace=wrap;html=1;" parent="ClowfGeDwB7Z-Gp7cLXi-23" vertex="1">
          <mxGeometry y="26" width="270" height="24" as="geometry" />
        </mxCell>
        <mxCell id="ClowfGeDwB7Z-Gp7cLXi-25" value="" style="line;strokeWidth=1;fillColor=none;align=left;verticalAlign=middle;spacingTop=-1;spacingLeft=3;spacingRight=3;rotatable=0;labelPosition=right;points=[];portConstraint=eastwest;strokeColor=inherit;" parent="ClowfGeDwB7Z-Gp7cLXi-23" vertex="1">
          <mxGeometry y="50" width="270" height="8" as="geometry" />
        </mxCell>
        <mxCell id="ClowfGeDwB7Z-Gp7cLXi-26" value="+ SalerHandler(employeeId : String)&lt;br&gt;&lt;div&gt;+ handleComplaint(complaint : Complaint) : void&amp;nbsp;&lt;/div&gt;" style="text;strokeColor=none;fillColor=none;align=left;verticalAlign=top;spacingLeft=4;spacingRight=4;overflow=hidden;rotatable=0;points=[[0,0.5],[1,0.5]];portConstraint=eastwest;whiteSpace=wrap;html=1;" parent="ClowfGeDwB7Z-Gp7cLXi-23" vertex="1">
          <mxGeometry y="58" width="270" height="42" as="geometry" />
        </mxCell>
        <mxCell id="9-IgjQardN9TOyDx4zbD-6" style="rounded=0;orthogonalLoop=1;jettySize=auto;html=1;endArrow=blockThin;endFill=0;endSize=14;entryX=0.815;entryY=1.054;entryDx=0;entryDy=0;entryPerimeter=0;" edge="1" parent="1" source="ClowfGeDwB7Z-Gp7cLXi-27" target="ClowfGeDwB7Z-Gp7cLXi-52">
          <mxGeometry relative="1" as="geometry">
            <mxPoint x="1640" y="410" as="targetPoint" />
          </mxGeometry>
        </mxCell>
        <mxCell id="ClowfGeDwB7Z-Gp7cLXi-27" value="StaffHandler" style="swimlane;fontStyle=1;align=center;verticalAlign=top;childLayout=stackLayout;horizontal=1;startSize=26;horizontalStack=0;resizeParent=1;resizeParentMax=0;resizeLast=0;collapsible=1;marginBottom=0;whiteSpace=wrap;html=1;" parent="1" vertex="1">
          <mxGeometry x="1620" y="470" width="270" height="100" as="geometry" />
        </mxCell>
        <mxCell id="ClowfGeDwB7Z-Gp7cLXi-28" value="- employeeId : String" style="text;strokeColor=none;fillColor=none;align=left;verticalAlign=top;spacingLeft=4;spacingRight=4;overflow=hidden;rotatable=0;points=[[0,0.5],[1,0.5]];portConstraint=eastwest;whiteSpace=wrap;html=1;" parent="ClowfGeDwB7Z-Gp7cLXi-27" vertex="1">
          <mxGeometry y="26" width="270" height="24" as="geometry" />
        </mxCell>
        <mxCell id="ClowfGeDwB7Z-Gp7cLXi-29" value="" style="line;strokeWidth=1;fillColor=none;align=left;verticalAlign=middle;spacingTop=-1;spacingLeft=3;spacingRight=3;rotatable=0;labelPosition=right;points=[];portConstraint=eastwest;strokeColor=inherit;" parent="ClowfGeDwB7Z-Gp7cLXi-27" vertex="1">
          <mxGeometry y="50" width="270" height="8" as="geometry" />
        </mxCell>
        <mxCell id="ClowfGeDwB7Z-Gp7cLXi-30" value="+ StaffHandler(employeeId : String)&lt;br&gt;&lt;div&gt;+ handleComplaint(complaint : Complaint) : void&amp;nbsp;&lt;/div&gt;" style="text;strokeColor=none;fillColor=none;align=left;verticalAlign=top;spacingLeft=4;spacingRight=4;overflow=hidden;rotatable=0;points=[[0,0.5],[1,0.5]];portConstraint=eastwest;whiteSpace=wrap;html=1;" parent="ClowfGeDwB7Z-Gp7cLXi-27" vertex="1">
          <mxGeometry y="58" width="270" height="42" as="geometry" />
        </mxCell>
        <mxCell id="ClowfGeDwB7Z-Gp7cLXi-31" value="EnglishMovieBuilder" style="swimlane;fontStyle=1;align=center;verticalAlign=top;childLayout=stackLayout;horizontal=1;startSize=26;horizontalStack=0;resizeParent=1;resizeParentMax=0;resizeLast=0;collapsible=1;marginBottom=0;whiteSpace=wrap;html=1;" parent="1" vertex="1">
          <mxGeometry x="1790" y="1340" width="210" height="200" as="geometry" />
        </mxCell>
        <mxCell id="ClowfGeDwB7Z-Gp7cLXi-32" value="~ movie : Movie" style="text;strokeColor=none;fillColor=none;align=left;verticalAlign=top;spacingLeft=4;spacingRight=4;overflow=hidden;rotatable=0;points=[[0,0.5],[1,0.5]];portConstraint=eastwest;whiteSpace=wrap;html=1;" parent="ClowfGeDwB7Z-Gp7cLXi-31" vertex="1">
          <mxGeometry y="26" width="210" height="24" as="geometry" />
        </mxCell>
        <mxCell id="ClowfGeDwB7Z-Gp7cLXi-33" value="" style="line;strokeWidth=1;fillColor=none;align=left;verticalAlign=middle;spacingTop=-1;spacingLeft=3;spacingRight=3;rotatable=0;labelPosition=right;points=[];portConstraint=eastwest;strokeColor=inherit;" parent="ClowfGeDwB7Z-Gp7cLXi-31" vertex="1">
          <mxGeometry y="50" width="210" height="8" as="geometry" />
        </mxCell>
        <mxCell id="ClowfGeDwB7Z-Gp7cLXi-34" value="&lt;div&gt;+ EnglishMovieBuilder()&lt;/div&gt;&lt;div&gt;+ setTitle(var1 : String) : void&amp;nbsp;&lt;/div&gt;&lt;div&gt;+ setDuration(var2 : int) : void&lt;/div&gt;&lt;div&gt;+ setGenre(var3 : String) : void&lt;/div&gt;&lt;div&gt;+ setAgeRestriction (var4 : int) : void&amp;nbsp;&lt;/div&gt;&lt;div&gt;+ setPrice (var5 : double)&amp;nbsp; : void&lt;/div&gt;&lt;div&gt;+ setSubtitles() : void&lt;/div&gt;&lt;div&gt;+ getMovie() : Movie&lt;/div&gt;&lt;div&gt;+ reset() : void&lt;/div&gt;" style="text;strokeColor=none;fillColor=none;align=left;verticalAlign=top;spacingLeft=4;spacingRight=4;overflow=hidden;rotatable=0;points=[[0,0.5],[1,0.5]];portConstraint=eastwest;whiteSpace=wrap;html=1;" parent="ClowfGeDwB7Z-Gp7cLXi-31" vertex="1">
          <mxGeometry y="58" width="210" height="142" as="geometry" />
        </mxCell>
        <mxCell id="ClowfGeDwB7Z-Gp7cLXi-35" value="Movie" style="swimlane;fontStyle=1;align=center;verticalAlign=top;childLayout=stackLayout;horizontal=1;startSize=26;horizontalStack=0;resizeParent=1;resizeParentMax=0;resizeLast=0;collapsible=1;marginBottom=0;whiteSpace=wrap;html=1;" parent="1" vertex="1">
          <mxGeometry x="1965" y="1650" width="190" height="200" as="geometry" />
        </mxCell>
        <mxCell id="ClowfGeDwB7Z-Gp7cLXi-36" value="- price : double&lt;div&gt;- genre : String&lt;/div&gt;&lt;div&gt;&lt;u&gt;- movieCounter : int&lt;/u&gt;&lt;/div&gt;" style="text;strokeColor=none;fillColor=none;align=left;verticalAlign=top;spacingLeft=4;spacingRight=4;overflow=hidden;rotatable=0;points=[[0,0.5],[1,0.5]];portConstraint=eastwest;whiteSpace=wrap;html=1;" parent="ClowfGeDwB7Z-Gp7cLXi-35" vertex="1">
          <mxGeometry y="26" width="190" height="54" as="geometry" />
        </mxCell>
        <mxCell id="ClowfGeDwB7Z-Gp7cLXi-37" value="" style="line;strokeWidth=1;fillColor=none;align=left;verticalAlign=middle;spacingTop=-1;spacingLeft=3;spacingRight=3;rotatable=0;labelPosition=right;points=[];portConstraint=eastwest;strokeColor=inherit;" parent="ClowfGeDwB7Z-Gp7cLXi-35" vertex="1">
          <mxGeometry y="80" width="190" height="8" as="geometry" />
        </mxCell>
        <mxCell id="ClowfGeDwB7Z-Gp7cLXi-38" value="&lt;div&gt;+ Movie()&amp;nbsp;&lt;/div&gt;&lt;div&gt;+ setId() : void&lt;/div&gt;&lt;div&gt;+ getGenre() : String&lt;/div&gt;&lt;div&gt;+ setGenre(genre : String) : void&amp;nbsp;&lt;/div&gt;&lt;div&gt;+ getPrice() : double&lt;/div&gt;&lt;div&gt;+ setPrice(price : double) : void&amp;nbsp;&lt;/div&gt;&lt;div&gt;+ display() : void&lt;/div&gt;" style="text;strokeColor=none;fillColor=none;align=left;verticalAlign=top;spacingLeft=4;spacingRight=4;overflow=hidden;rotatable=0;points=[[0,0.5],[1,0.5]];portConstraint=eastwest;whiteSpace=wrap;html=1;" parent="ClowfGeDwB7Z-Gp7cLXi-35" vertex="1">
          <mxGeometry y="88" width="190" height="112" as="geometry" />
        </mxCell>
        <mxCell id="ClowfGeDwB7Z-Gp7cLXi-39" value="&amp;lt;&amp;lt;interface&amp;gt;&amp;gt; IMovieBuilder" style="swimlane;fontStyle=0;childLayout=stackLayout;horizontal=1;startSize=26;fillColor=none;horizontalStack=0;resizeParent=1;resizeParentMax=0;resizeLast=0;collapsible=1;marginBottom=0;whiteSpace=wrap;html=1;" parent="1" vertex="1">
          <mxGeometry x="1955" y="1110" width="200" height="160" as="geometry" />
        </mxCell>
        <mxCell id="ClowfGeDwB7Z-Gp7cLXi-40" value="&lt;div&gt;reset() : void&lt;/div&gt;&lt;div&gt;getMovie() : Movie&lt;/div&gt;&lt;div&gt;setSubtitles() : void&lt;/div&gt;&lt;div&gt;setPrice(var5 : double) : void&lt;/div&gt;&lt;div&gt;setAgeRestriction (var4 : int) : void&lt;/div&gt;&lt;div&gt;setGenre(var3 : String) : void&lt;/div&gt;&lt;div&gt;setDuration(var2 : int) : void&lt;/div&gt;&lt;div&gt;setTitle(var1 : String) : void&lt;/div&gt;" style="text;strokeColor=none;fillColor=none;align=left;verticalAlign=top;spacingLeft=4;spacingRight=4;overflow=hidden;rotatable=0;points=[[0,0.5],[1,0.5]];portConstraint=eastwest;whiteSpace=wrap;html=1;" parent="ClowfGeDwB7Z-Gp7cLXi-39" vertex="1">
          <mxGeometry y="26" width="200" height="134" as="geometry" />
        </mxCell>
        <mxCell id="ClowfGeDwB7Z-Gp7cLXi-41" value="&amp;lt;&amp;lt;interface&amp;gt;&amp;gt; IEmployeeBuilder" style="swimlane;fontStyle=0;childLayout=stackLayout;horizontal=1;startSize=26;fillColor=none;horizontalStack=0;resizeParent=1;resizeParentMax=0;resizeLast=0;collapsible=1;marginBottom=0;whiteSpace=wrap;html=1;" parent="1" vertex="1">
          <mxGeometry x="1215" y="2400" width="200" height="110" as="geometry" />
        </mxCell>
        <mxCell id="ClowfGeDwB7Z-Gp7cLXi-42" value="&lt;div&gt;getEmployee() : Employee&lt;/div&gt;&lt;div&gt;setPassword(var3 : String) : void&amp;nbsp;&lt;/div&gt;&lt;div&gt;setRole() : void&lt;/div&gt;&lt;div&gt;setBirthdate (var2 : String) : void&amp;nbsp;&lt;/div&gt;&lt;div&gt;setName (var1 : String) : void&lt;/div&gt;" style="text;strokeColor=none;fillColor=none;align=left;verticalAlign=top;spacingLeft=4;spacingRight=4;overflow=hidden;rotatable=0;points=[[0,0.5],[1,0.5]];portConstraint=eastwest;whiteSpace=wrap;html=1;" parent="ClowfGeDwB7Z-Gp7cLXi-41" vertex="1">
          <mxGeometry y="26" width="200" height="84" as="geometry" />
        </mxCell>
        <mxCell id="ClowfGeDwB7Z-Gp7cLXi-43" value="&amp;lt;&amp;lt;utility&amp;gt;&amp;gt; Main" style="swimlane;fontStyle=0;childLayout=stackLayout;horizontal=1;startSize=26;fillColor=none;horizontalStack=0;resizeParent=1;resizeParentMax=0;resizeLast=0;collapsible=1;marginBottom=0;whiteSpace=wrap;html=1;" parent="1" vertex="1">
          <mxGeometry x="585" y="2370" width="170" height="50" as="geometry" />
        </mxCell>
        <mxCell id="ClowfGeDwB7Z-Gp7cLXi-44" value="&lt;u&gt;+ main(args : String[]) : void&lt;/u&gt;&amp;nbsp;" style="text;strokeColor=none;fillColor=none;align=left;verticalAlign=top;spacingLeft=4;spacingRight=4;overflow=hidden;rotatable=0;points=[[0,0.5],[1,0.5]];portConstraint=eastwest;whiteSpace=wrap;html=1;" parent="ClowfGeDwB7Z-Gp7cLXi-43" vertex="1">
          <mxGeometry y="26" width="170" height="24" as="geometry" />
        </mxCell>
        <mxCell id="ClowfGeDwB7Z-Gp7cLXi-45" value="DatabaseConnection" style="swimlane;fontStyle=1;align=center;verticalAlign=top;childLayout=stackLayout;horizontal=1;startSize=26;horizontalStack=0;resizeParent=1;resizeParentMax=0;resizeLast=0;collapsible=1;marginBottom=0;whiteSpace=wrap;html=1;" parent="1" vertex="1">
          <mxGeometry x="560" y="2090" width="220" height="160" as="geometry" />
        </mxCell>
        <mxCell id="ClowfGeDwB7Z-Gp7cLXi-46" value="- url : String&lt;div&gt;- connection : Connection&lt;/div&gt;&lt;div&gt;&lt;u&gt;- instance : DatabaseConnection&lt;/u&gt;&lt;/div&gt;" style="text;strokeColor=none;fillColor=none;align=left;verticalAlign=top;spacingLeft=4;spacingRight=4;overflow=hidden;rotatable=0;points=[[0,0.5],[1,0.5]];portConstraint=eastwest;whiteSpace=wrap;html=1;" parent="ClowfGeDwB7Z-Gp7cLXi-45" vertex="1">
          <mxGeometry y="26" width="220" height="54" as="geometry" />
        </mxCell>
        <mxCell id="ClowfGeDwB7Z-Gp7cLXi-47" value="" style="line;strokeWidth=1;fillColor=none;align=left;verticalAlign=middle;spacingTop=-1;spacingLeft=3;spacingRight=3;rotatable=0;labelPosition=right;points=[];portConstraint=eastwest;strokeColor=inherit;" parent="ClowfGeDwB7Z-Gp7cLXi-45" vertex="1">
          <mxGeometry y="80" width="220" height="8" as="geometry" />
        </mxCell>
        <mxCell id="ClowfGeDwB7Z-Gp7cLXi-48" value="- DatabaseConnection()&lt;br&gt;&lt;u&gt;+ getInstance() : DatabaseConnection&lt;/u&gt;&lt;div&gt;+ getConnection : Connection&lt;/div&gt;&lt;div&gt;+ isClosed() : boolean&lt;/div&gt;" style="text;strokeColor=none;fillColor=none;align=left;verticalAlign=top;spacingLeft=4;spacingRight=4;overflow=hidden;rotatable=0;points=[[0,0.5],[1,0.5]];portConstraint=eastwest;whiteSpace=wrap;html=1;" parent="ClowfGeDwB7Z-Gp7cLXi-45" vertex="1">
          <mxGeometry y="88" width="220" height="72" as="geometry" />
        </mxCell>
        <mxCell id="ClowfGeDwB7Z-Gp7cLXi-49" value="EmployeeHandler" style="swimlane;fontStyle=1;align=center;verticalAlign=top;childLayout=stackLayout;horizontal=1;startSize=26;horizontalStack=0;resizeParent=1;resizeParentMax=0;resizeLast=0;collapsible=1;marginBottom=0;whiteSpace=wrap;html=1;" parent="1" vertex="1">
          <mxGeometry x="1210" y="280" width="530" height="120" as="geometry" />
        </mxCell>
        <mxCell id="ClowfGeDwB7Z-Gp7cLXi-50" value="# successor : EmployeeHandler" style="text;strokeColor=none;fillColor=none;align=left;verticalAlign=top;spacingLeft=4;spacingRight=4;overflow=hidden;rotatable=0;points=[[0,0.5],[1,0.5]];portConstraint=eastwest;whiteSpace=wrap;html=1;" parent="ClowfGeDwB7Z-Gp7cLXi-49" vertex="1">
          <mxGeometry y="26" width="530" height="24" as="geometry" />
        </mxCell>
        <mxCell id="ClowfGeDwB7Z-Gp7cLXi-51" value="" style="line;strokeWidth=1;fillColor=none;align=left;verticalAlign=middle;spacingTop=-1;spacingLeft=3;spacingRight=3;rotatable=0;labelPosition=right;points=[];portConstraint=eastwest;strokeColor=inherit;" parent="ClowfGeDwB7Z-Gp7cLXi-49" vertex="1">
          <mxGeometry y="50" width="530" height="8" as="geometry" />
        </mxCell>
        <mxCell id="ClowfGeDwB7Z-Gp7cLXi-52" value="&lt;div&gt;+ setSuccessor(successor : EmployeeHandler) : void&lt;/div&gt;&lt;div&gt;+ handleComplaint(complaint : Complaint) : void&lt;/div&gt;&lt;div&gt;# assignComplaint(complaint : Complaint, employeeId : String, resolutionMessage : String) : void&lt;/div&gt;" style="text;strokeColor=none;fillColor=none;align=left;verticalAlign=top;spacingLeft=4;spacingRight=4;overflow=hidden;rotatable=0;points=[[0,0.5],[1,0.5]];portConstraint=eastwest;whiteSpace=wrap;html=1;" parent="ClowfGeDwB7Z-Gp7cLXi-49" vertex="1">
          <mxGeometry y="58" width="530" height="62" as="geometry" />
        </mxCell>
        <mxCell id="ClowfGeDwB7Z-Gp7cLXi-53" value="ComplaintManager" style="swimlane;fontStyle=0;childLayout=stackLayout;horizontal=1;startSize=26;fillColor=none;horizontalStack=0;resizeParent=1;resizeParentMax=0;resizeLast=0;collapsible=1;marginBottom=0;whiteSpace=wrap;html=1;" parent="1" vertex="1">
          <mxGeometry x="1220" y="990" width="510" height="60" as="geometry" />
        </mxCell>
        <mxCell id="ClowfGeDwB7Z-Gp7cLXi-54" value="+ resolveComplaint(complaint : Complaint, resolutionText : String, employeeId : String) : void" style="text;strokeColor=none;fillColor=none;align=left;verticalAlign=top;spacingLeft=4;spacingRight=4;overflow=hidden;rotatable=0;points=[[0,0.5],[1,0.5]];portConstraint=eastwest;whiteSpace=wrap;html=1;" parent="ClowfGeDwB7Z-Gp7cLXi-53" vertex="1">
          <mxGeometry y="26" width="510" height="34" as="geometry" />
        </mxCell>
        <mxCell id="ClowfGeDwB7Z-Gp7cLXi-55" value="AdvertisementMaker" style="swimlane;fontStyle=1;align=center;verticalAlign=top;childLayout=stackLayout;horizontal=1;startSize=26;horizontalStack=0;resizeParent=1;resizeParentMax=0;resizeLast=0;collapsible=1;marginBottom=0;whiteSpace=wrap;html=1;" parent="1" vertex="1">
          <mxGeometry x="2880" y="1950" width="410" height="110" as="geometry" />
        </mxCell>
        <mxCell id="ClowfGeDwB7Z-Gp7cLXi-56" value="- iAdvertisementBuilder : IAdvertisementBuilder" style="text;strokeColor=none;fillColor=none;align=left;verticalAlign=top;spacingLeft=4;spacingRight=4;overflow=hidden;rotatable=0;points=[[0,0.5],[1,0.5]];portConstraint=eastwest;whiteSpace=wrap;html=1;" parent="ClowfGeDwB7Z-Gp7cLXi-55" vertex="1">
          <mxGeometry y="26" width="410" height="24" as="geometry" />
        </mxCell>
        <mxCell id="ClowfGeDwB7Z-Gp7cLXi-57" value="" style="line;strokeWidth=1;fillColor=none;align=left;verticalAlign=middle;spacingTop=-1;spacingLeft=3;spacingRight=3;rotatable=0;labelPosition=right;points=[];portConstraint=eastwest;strokeColor=inherit;" parent="ClowfGeDwB7Z-Gp7cLXi-55" vertex="1">
          <mxGeometry y="50" width="410" height="8" as="geometry" />
        </mxCell>
        <mxCell id="ClowfGeDwB7Z-Gp7cLXi-58" value="&lt;div&gt;&lt;span style=&quot;background-color: initial;&quot;&gt;+ AdvertisementMaker(iAdvertisementBuilder : IAdvertisementBuilder)&lt;/span&gt;&lt;br&gt;&lt;/div&gt;&lt;div&gt;+ makeAdvertisement(title : String, duration : int, ageRestriction : int) : void&amp;nbsp;&lt;/div&gt;&lt;div&gt;+ getAdvertisement() : Advertisement&lt;/div&gt;" style="text;strokeColor=none;fillColor=none;align=left;verticalAlign=top;spacingLeft=4;spacingRight=4;overflow=hidden;rotatable=0;points=[[0,0.5],[1,0.5]];portConstraint=eastwest;whiteSpace=wrap;html=1;" parent="ClowfGeDwB7Z-Gp7cLXi-55" vertex="1">
          <mxGeometry y="58" width="410" height="52" as="geometry" />
        </mxCell>
        <mxCell id="ClowfGeDwB7Z-Gp7cLXi-59" value="EmployeeMaker" style="swimlane;fontStyle=1;align=center;verticalAlign=top;childLayout=stackLayout;horizontal=1;startSize=26;horizontalStack=0;resizeParent=1;resizeParentMax=0;resizeLast=0;collapsible=1;marginBottom=0;whiteSpace=wrap;html=1;" parent="1" vertex="1">
          <mxGeometry x="1100" y="2590" width="420" height="130" as="geometry" />
        </mxCell>
        <mxCell id="ClowfGeDwB7Z-Gp7cLXi-60" value="- iEmployeeBuilder : IEmployeeBuilder" style="text;strokeColor=none;fillColor=none;align=left;verticalAlign=top;spacingLeft=4;spacingRight=4;overflow=hidden;rotatable=0;points=[[0,0.5],[1,0.5]];portConstraint=eastwest;whiteSpace=wrap;html=1;" parent="ClowfGeDwB7Z-Gp7cLXi-59" vertex="1">
          <mxGeometry y="26" width="420" height="24" as="geometry" />
        </mxCell>
        <mxCell id="ClowfGeDwB7Z-Gp7cLXi-61" value="" style="line;strokeWidth=1;fillColor=none;align=left;verticalAlign=middle;spacingTop=-1;spacingLeft=3;spacingRight=3;rotatable=0;labelPosition=right;points=[];portConstraint=eastwest;strokeColor=inherit;" parent="ClowfGeDwB7Z-Gp7cLXi-59" vertex="1">
          <mxGeometry y="50" width="420" height="8" as="geometry" />
        </mxCell>
        <mxCell id="ClowfGeDwB7Z-Gp7cLXi-62" value="&lt;div&gt;&lt;div&gt;+ EmployeeMaker(iEmployee Builder : IEmployeeBuilder)&lt;/div&gt;&lt;div&gt;+ makeEmployee(name : String, birthdate : String, password : String) : void&amp;nbsp;&lt;/div&gt;&lt;div&gt;+ getEmployee() : Employee&lt;/div&gt;&lt;div&gt;+ reset(iEmployeeBuilder: IEmployeeBuilder) : void&lt;/div&gt;&lt;/div&gt;&lt;div&gt;&lt;br&gt;&lt;/div&gt;" style="text;strokeColor=none;fillColor=none;align=left;verticalAlign=top;spacingLeft=4;spacingRight=4;overflow=hidden;rotatable=0;points=[[0,0.5],[1,0.5]];portConstraint=eastwest;whiteSpace=wrap;html=1;" parent="ClowfGeDwB7Z-Gp7cLXi-59" vertex="1">
          <mxGeometry y="58" width="420" height="72" as="geometry" />
        </mxCell>
        <mxCell id="ClowfGeDwB7Z-Gp7cLXi-63" value="CinemaMenuManager" style="swimlane;fontStyle=1;align=center;verticalAlign=top;childLayout=stackLayout;horizontal=1;startSize=26;horizontalStack=0;resizeParent=1;resizeParentMax=0;resizeLast=0;collapsible=1;marginBottom=0;whiteSpace=wrap;html=1;" parent="1" vertex="1">
          <mxGeometry x="1360" y="690" width="230" height="210" as="geometry" />
        </mxCell>
        <mxCell id="ClowfGeDwB7Z-Gp7cLXi-64" value="&lt;div&gt;- managerHandler : ManagerHandler&amp;nbsp;&lt;/div&gt;&lt;div&gt;- staffHandler : StaffHandler&lt;/div&gt;&lt;div&gt;- salerHandler : SalerHandler&lt;/div&gt;&lt;div&gt;- dbInitializer : DatabaseInitializer&amp;nbsp;&lt;/div&gt;&lt;div&gt;- complaintManager : ComplaintManager&lt;/div&gt;&lt;div&gt;- scanner : Scanner&lt;/div&gt;" style="text;strokeColor=none;fillColor=none;align=left;verticalAlign=top;spacingLeft=4;spacingRight=4;overflow=hidden;rotatable=0;points=[[0,0.5],[1,0.5]];portConstraint=eastwest;whiteSpace=wrap;html=1;" parent="ClowfGeDwB7Z-Gp7cLXi-63" vertex="1">
          <mxGeometry y="26" width="230" height="94" as="geometry" />
        </mxCell>
        <mxCell id="ClowfGeDwB7Z-Gp7cLXi-65" value="" style="line;strokeWidth=1;fillColor=none;align=left;verticalAlign=middle;spacingTop=-1;spacingLeft=3;spacingRight=3;rotatable=0;labelPosition=right;points=[];portConstraint=eastwest;strokeColor=inherit;" parent="ClowfGeDwB7Z-Gp7cLXi-63" vertex="1">
          <mxGeometry y="120" width="230" height="8" as="geometry" />
        </mxCell>
        <mxCell id="ClowfGeDwB7Z-Gp7cLXi-66" value="&lt;div&gt;&lt;div&gt;&lt;div&gt;+ CinemaMenuManager()&lt;/div&gt;&lt;div&gt;+ run() : void&lt;/div&gt;&lt;div&gt;+ displayMenu() : void&lt;/div&gt;&lt;div&gt;- employeeMenu() : void&amp;nbsp;&lt;/div&gt;&lt;div&gt;- customerMenu() : void&lt;/div&gt;&lt;/div&gt;&lt;/div&gt;" style="text;strokeColor=none;fillColor=none;align=left;verticalAlign=top;spacingLeft=4;spacingRight=4;overflow=hidden;rotatable=0;points=[[0,0.5],[1,0.5]];portConstraint=eastwest;whiteSpace=wrap;html=1;" parent="ClowfGeDwB7Z-Gp7cLXi-63" vertex="1">
          <mxGeometry y="128" width="230" height="82" as="geometry" />
        </mxCell>
        <mxCell id="9-IgjQardN9TOyDx4zbD-9" style="rounded=0;orthogonalLoop=1;jettySize=auto;html=1;entryX=0;entryY=0;entryDx=0;entryDy=0;endArrow=diamondThin;endFill=1;endSize=14;" edge="1" parent="1" source="ClowfGeDwB7Z-Gp7cLXi-67" target="ClowfGeDwB7Z-Gp7cLXi-63">
          <mxGeometry relative="1" as="geometry" />
        </mxCell>
        <mxCell id="ClowfGeDwB7Z-Gp7cLXi-67" value="ManagerHandler" style="swimlane;fontStyle=1;align=center;verticalAlign=top;childLayout=stackLayout;horizontal=1;startSize=26;horizontalStack=0;resizeParent=1;resizeParentMax=0;resizeLast=0;collapsible=1;marginBottom=0;whiteSpace=wrap;html=1;" parent="1" vertex="1">
          <mxGeometry x="1060" y="470" width="270" height="100" as="geometry" />
        </mxCell>
        <mxCell id="ClowfGeDwB7Z-Gp7cLXi-68" value="- employeeId : String" style="text;strokeColor=none;fillColor=none;align=left;verticalAlign=top;spacingLeft=4;spacingRight=4;overflow=hidden;rotatable=0;points=[[0,0.5],[1,0.5]];portConstraint=eastwest;whiteSpace=wrap;html=1;" parent="ClowfGeDwB7Z-Gp7cLXi-67" vertex="1">
          <mxGeometry y="26" width="270" height="24" as="geometry" />
        </mxCell>
        <mxCell id="ClowfGeDwB7Z-Gp7cLXi-69" value="" style="line;strokeWidth=1;fillColor=none;align=left;verticalAlign=middle;spacingTop=-1;spacingLeft=3;spacingRight=3;rotatable=0;labelPosition=right;points=[];portConstraint=eastwest;strokeColor=inherit;" parent="ClowfGeDwB7Z-Gp7cLXi-67" vertex="1">
          <mxGeometry y="50" width="270" height="8" as="geometry" />
        </mxCell>
        <mxCell id="ClowfGeDwB7Z-Gp7cLXi-70" value="+ ManagerHandler(employeeID : String)&lt;div&gt;+ handleComplaint(complaint : Complaint) : void&lt;/div&gt;" style="text;strokeColor=none;fillColor=none;align=left;verticalAlign=top;spacingLeft=4;spacingRight=4;overflow=hidden;rotatable=0;points=[[0,0.5],[1,0.5]];portConstraint=eastwest;whiteSpace=wrap;html=1;" parent="ClowfGeDwB7Z-Gp7cLXi-67" vertex="1">
          <mxGeometry y="58" width="270" height="42" as="geometry" />
        </mxCell>
        <mxCell id="ClowfGeDwB7Z-Gp7cLXi-71" value="&amp;lt;&amp;lt;enumeration&amp;gt;&amp;gt; PaymentMethod" style="swimlane;fontStyle=0;childLayout=stackLayout;horizontal=1;startSize=26;fillColor=none;horizontalStack=0;resizeParent=1;resizeParentMax=0;resizeLast=0;collapsible=1;marginBottom=0;whiteSpace=wrap;html=1;" parent="1" vertex="1">
          <mxGeometry x="1480" y="1540" width="200" height="80" as="geometry" />
        </mxCell>
        <mxCell id="ClowfGeDwB7Z-Gp7cLXi-72" value="&lt;div&gt;PAYPAL&lt;/div&gt;&lt;div&gt;CREDIT&lt;/div&gt;&lt;div&gt;DEBIT&lt;/div&gt;" style="text;strokeColor=none;fillColor=none;align=left;verticalAlign=top;spacingLeft=4;spacingRight=4;overflow=hidden;rotatable=0;points=[[0,0.5],[1,0.5]];portConstraint=eastwest;whiteSpace=wrap;html=1;" parent="ClowfGeDwB7Z-Gp7cLXi-71" vertex="1">
          <mxGeometry y="26" width="200" height="54" as="geometry" />
        </mxCell>
        <mxCell id="ClowfGeDwB7Z-Gp7cLXi-73" value="&amp;lt;&amp;lt;enumeration&amp;gt;&amp;gt; Language" style="swimlane;fontStyle=0;childLayout=stackLayout;horizontal=1;startSize=26;fillColor=none;horizontalStack=0;resizeParent=1;resizeParentMax=0;resizeLast=0;collapsible=1;marginBottom=0;whiteSpace=wrap;html=1;" parent="1" vertex="1">
          <mxGeometry x="2290" y="2134" width="180" height="66" as="geometry" />
        </mxCell>
        <mxCell id="ClowfGeDwB7Z-Gp7cLXi-74" value="&lt;div&gt;EN&lt;/div&gt;&lt;div&gt;FR&lt;/div&gt;" style="text;strokeColor=none;fillColor=none;align=left;verticalAlign=top;spacingLeft=4;spacingRight=4;overflow=hidden;rotatable=0;points=[[0,0.5],[1,0.5]];portConstraint=eastwest;whiteSpace=wrap;html=1;" parent="ClowfGeDwB7Z-Gp7cLXi-73" vertex="1">
          <mxGeometry y="26" width="180" height="40" as="geometry" />
        </mxCell>
        <mxCell id="ClowfGeDwB7Z-Gp7cLXi-75" value="&amp;lt;&amp;lt;enumeration&amp;gt;&amp;gt; Roles" style="swimlane;fontStyle=0;childLayout=stackLayout;horizontal=1;startSize=26;fillColor=none;horizontalStack=0;resizeParent=1;resizeParentMax=0;resizeLast=0;collapsible=1;marginBottom=0;whiteSpace=wrap;html=1;" parent="1" vertex="1">
          <mxGeometry x="1540" y="1935" width="160" height="80" as="geometry" />
        </mxCell>
        <mxCell id="ClowfGeDwB7Z-Gp7cLXi-76" value="&lt;div&gt;MANAGER&lt;/div&gt;&lt;div&gt;STAFF&lt;/div&gt;&lt;div&gt;SALER&lt;/div&gt;" style="text;strokeColor=none;fillColor=none;align=left;verticalAlign=top;spacingLeft=4;spacingRight=4;overflow=hidden;rotatable=0;points=[[0,0.5],[1,0.5]];portConstraint=eastwest;whiteSpace=wrap;html=1;" parent="ClowfGeDwB7Z-Gp7cLXi-75" vertex="1">
          <mxGeometry y="26" width="160" height="54" as="geometry" />
        </mxCell>
        <mxCell id="ClowfGeDwB7Z-Gp7cLXi-77" value="Advertisement" style="swimlane;fontStyle=1;align=center;verticalAlign=top;childLayout=stackLayout;horizontal=1;startSize=26;horizontalStack=0;resizeParent=1;resizeParentMax=0;resizeLast=0;collapsible=1;marginBottom=0;whiteSpace=wrap;html=1;" parent="1" vertex="1">
          <mxGeometry x="2290" y="1950" width="160" height="110" as="geometry" />
        </mxCell>
        <mxCell id="ClowfGeDwB7Z-Gp7cLXi-78" value="&lt;u&gt;- advertisementCounter : int&lt;/u&gt;" style="text;strokeColor=none;fillColor=none;align=left;verticalAlign=top;spacingLeft=4;spacingRight=4;overflow=hidden;rotatable=0;points=[[0,0.5],[1,0.5]];portConstraint=eastwest;whiteSpace=wrap;html=1;" parent="ClowfGeDwB7Z-Gp7cLXi-77" vertex="1">
          <mxGeometry y="26" width="160" height="24" as="geometry" />
        </mxCell>
        <mxCell id="ClowfGeDwB7Z-Gp7cLXi-79" value="" style="line;strokeWidth=1;fillColor=none;align=left;verticalAlign=middle;spacingTop=-1;spacingLeft=3;spacingRight=3;rotatable=0;labelPosition=right;points=[];portConstraint=eastwest;strokeColor=inherit;" parent="ClowfGeDwB7Z-Gp7cLXi-77" vertex="1">
          <mxGeometry y="50" width="160" height="8" as="geometry" />
        </mxCell>
        <mxCell id="ClowfGeDwB7Z-Gp7cLXi-80" value="+ Advertisement()&amp;nbsp;&lt;div&gt;+ setId() : void&lt;/div&gt;&lt;div&gt;+ display() : void&lt;/div&gt;" style="text;strokeColor=none;fillColor=none;align=left;verticalAlign=top;spacingLeft=4;spacingRight=4;overflow=hidden;rotatable=0;points=[[0,0.5],[1,0.5]];portConstraint=eastwest;whiteSpace=wrap;html=1;" parent="ClowfGeDwB7Z-Gp7cLXi-77" vertex="1">
          <mxGeometry y="58" width="160" height="52" as="geometry" />
        </mxCell>
        <mxCell id="ClowfGeDwB7Z-Gp7cLXi-81" value="&amp;lt;&amp;lt;interface&amp;gt;&amp;gt; IAdvertismentBuilder" style="swimlane;fontStyle=0;childLayout=stackLayout;horizontal=1;startSize=26;fillColor=none;horizontalStack=0;resizeParent=1;resizeParentMax=0;resizeLast=0;collapsible=1;marginBottom=0;whiteSpace=wrap;html=1;" parent="1" vertex="1">
          <mxGeometry x="2550" y="1945" width="200" height="120" as="geometry" />
        </mxCell>
        <mxCell id="ClowfGeDwB7Z-Gp7cLXi-82" value="&lt;div&gt;reset() : void&lt;/div&gt;&lt;div&gt;getAdvertisement() : Advertisement&lt;/div&gt;&lt;div&gt;setSubtitles() : void&lt;/div&gt;&lt;div&gt;setAgeRestriction (var3 : int) : void&lt;/div&gt;&lt;div&gt;setDuration(var2 : int) : void&lt;/div&gt;&lt;div&gt;setTitle(var1 : String) : void&lt;/div&gt;" style="text;strokeColor=none;fillColor=none;align=left;verticalAlign=top;spacingLeft=4;spacingRight=4;overflow=hidden;rotatable=0;points=[[0,0.5],[1,0.5]];portConstraint=eastwest;whiteSpace=wrap;html=1;" parent="ClowfGeDwB7Z-Gp7cLXi-81" vertex="1">
          <mxGeometry y="26" width="200" height="94" as="geometry" />
        </mxCell>
        <mxCell id="ClowfGeDwB7Z-Gp7cLXi-83" value="User" style="swimlane;fontStyle=1;align=center;verticalAlign=top;childLayout=stackLayout;horizontal=1;startSize=26;horizontalStack=0;resizeParent=1;resizeParentMax=0;resizeLast=0;collapsible=1;marginBottom=0;whiteSpace=wrap;html=1;" parent="1" vertex="1">
          <mxGeometry x="1200" y="1540" width="230" height="250" as="geometry" />
        </mxCell>
        <mxCell id="ClowfGeDwB7Z-Gp7cLXi-84" value="&lt;div&gt;# birthdate : String&amp;nbsp;&lt;/div&gt;&lt;div&gt;# password : String&lt;/div&gt;&lt;div&gt;# name : String&lt;/div&gt;&lt;div&gt;# id : String&lt;/div&gt;" style="text;strokeColor=none;fillColor=none;align=left;verticalAlign=top;spacingLeft=4;spacingRight=4;overflow=hidden;rotatable=0;points=[[0,0.5],[1,0.5]];portConstraint=eastwest;whiteSpace=wrap;html=1;" parent="ClowfGeDwB7Z-Gp7cLXi-83" vertex="1">
          <mxGeometry y="26" width="230" height="64" as="geometry" />
        </mxCell>
        <mxCell id="ClowfGeDwB7Z-Gp7cLXi-85" value="" style="line;strokeWidth=1;fillColor=none;align=left;verticalAlign=middle;spacingTop=-1;spacingLeft=3;spacingRight=3;rotatable=0;labelPosition=right;points=[];portConstraint=eastwest;strokeColor=inherit;" parent="ClowfGeDwB7Z-Gp7cLXi-83" vertex="1">
          <mxGeometry y="90" width="230" height="8" as="geometry" />
        </mxCell>
        <mxCell id="ClowfGeDwB7Z-Gp7cLXi-86" value="&lt;div&gt;+ User()&lt;/div&gt;&lt;div&gt;+ getId() : String&lt;/div&gt;&lt;div&gt;+ setId(id : String) : void&lt;/div&gt;&lt;div&gt;+ getName() : String&lt;/div&gt;&lt;div&gt;+ setName(name : String) : void&lt;/div&gt;&lt;div&gt;+ getPassword() : String&lt;/div&gt;&lt;div&gt;+ setPassword(password : String) : void&lt;/div&gt;&lt;div&gt;+ getBirthdate() : String&lt;/div&gt;&lt;div&gt;+ setBirthdate(birthdate : String) : void&amp;nbsp;&lt;/div&gt;&lt;div&gt;# display() : void&lt;/div&gt;" style="text;strokeColor=none;fillColor=none;align=left;verticalAlign=top;spacingLeft=4;spacingRight=4;overflow=hidden;rotatable=0;points=[[0,0.5],[1,0.5]];portConstraint=eastwest;whiteSpace=wrap;html=1;" parent="ClowfGeDwB7Z-Gp7cLXi-83" vertex="1">
          <mxGeometry y="98" width="230" height="152" as="geometry" />
        </mxCell>
        <mxCell id="9-IgjQardN9TOyDx4zbD-15" style="rounded=0;orthogonalLoop=1;jettySize=auto;html=1;entryX=0.5;entryY=0;entryDx=0;entryDy=0;endArrow=diamondThin;endFill=1;endSize=14;" edge="1" parent="1" source="ClowfGeDwB7Z-Gp7cLXi-87" target="ClowfGeDwB7Z-Gp7cLXi-91">
          <mxGeometry relative="1" as="geometry" />
        </mxCell>
        <mxCell id="ClowfGeDwB7Z-Gp7cLXi-87" value="Employee" style="swimlane;fontStyle=1;align=center;verticalAlign=top;childLayout=stackLayout;horizontal=1;startSize=26;horizontalStack=0;resizeParent=1;resizeParentMax=0;resizeLast=0;collapsible=1;marginBottom=0;whiteSpace=wrap;html=1;" parent="1" vertex="1">
          <mxGeometry x="1200" y="1860" width="220" height="230" as="geometry" />
        </mxCell>
        <mxCell id="ClowfGeDwB7Z-Gp7cLXi-88" value="&lt;div&gt;- sales : int&lt;/div&gt;&lt;div&gt;- role : Roles&lt;/div&gt;&lt;div&gt;&lt;u&gt;- employeeCounter : int&lt;/u&gt;&lt;/div&gt;" style="text;strokeColor=none;fillColor=none;align=left;verticalAlign=top;spacingLeft=4;spacingRight=4;overflow=hidden;rotatable=0;points=[[0,0.5],[1,0.5]];portConstraint=eastwest;whiteSpace=wrap;html=1;" parent="ClowfGeDwB7Z-Gp7cLXi-87" vertex="1">
          <mxGeometry y="26" width="220" height="54" as="geometry" />
        </mxCell>
        <mxCell id="ClowfGeDwB7Z-Gp7cLXi-89" value="" style="line;strokeWidth=1;fillColor=none;align=left;verticalAlign=middle;spacingTop=-1;spacingLeft=3;spacingRight=3;rotatable=0;labelPosition=right;points=[];portConstraint=eastwest;strokeColor=inherit;" parent="ClowfGeDwB7Z-Gp7cLXi-87" vertex="1">
          <mxGeometry y="80" width="220" height="8" as="geometry" />
        </mxCell>
        <mxCell id="ClowfGeDwB7Z-Gp7cLXi-90" value="&lt;div&gt;+ Employee(id : String)&amp;nbsp;&lt;/div&gt;&lt;div&gt;+ Employee()&lt;/div&gt;&lt;div&gt;+ getRole() : Roles&lt;/div&gt;&lt;div&gt;+ setRole(role : Roles) : void&lt;/div&gt;&lt;div&gt;+ getSales() : int&lt;/div&gt;&lt;div&gt;+ increaseSales(newSales : int) : void&lt;/div&gt;&lt;div&gt;+ setId(id:&amp;nbsp; String) : void&lt;/div&gt;&lt;div&gt;+ setId() : void&lt;/div&gt;&lt;div&gt;# display() : void&lt;/div&gt;" style="text;strokeColor=none;fillColor=none;align=left;verticalAlign=top;spacingLeft=4;spacingRight=4;overflow=hidden;rotatable=0;points=[[0,0.5],[1,0.5]];portConstraint=eastwest;whiteSpace=wrap;html=1;" parent="ClowfGeDwB7Z-Gp7cLXi-87" vertex="1">
          <mxGeometry y="88" width="220" height="142" as="geometry" />
        </mxCell>
        <mxCell id="ClowfGeDwB7Z-Gp7cLXi-91" value="StaffEmpBuilder" style="swimlane;fontStyle=1;align=center;verticalAlign=top;childLayout=stackLayout;horizontal=1;startSize=26;horizontalStack=0;resizeParent=1;resizeParentMax=0;resizeLast=0;collapsible=1;marginBottom=0;whiteSpace=wrap;html=1;" parent="1" vertex="1">
          <mxGeometry x="1200" y="2170" width="220" height="140" as="geometry" />
        </mxCell>
        <mxCell id="ClowfGeDwB7Z-Gp7cLXi-92" value="&lt;div&gt;~ employee : Employee&lt;/div&gt;" style="text;strokeColor=none;fillColor=none;align=left;verticalAlign=top;spacingLeft=4;spacingRight=4;overflow=hidden;rotatable=0;points=[[0,0.5],[1,0.5]];portConstraint=eastwest;whiteSpace=wrap;html=1;" parent="ClowfGeDwB7Z-Gp7cLXi-91" vertex="1">
          <mxGeometry y="26" width="220" height="24" as="geometry" />
        </mxCell>
        <mxCell id="ClowfGeDwB7Z-Gp7cLXi-93" value="" style="line;strokeWidth=1;fillColor=none;align=left;verticalAlign=middle;spacingTop=-1;spacingLeft=3;spacingRight=3;rotatable=0;labelPosition=right;points=[];portConstraint=eastwest;strokeColor=inherit;" parent="ClowfGeDwB7Z-Gp7cLXi-91" vertex="1">
          <mxGeometry y="50" width="220" height="8" as="geometry" />
        </mxCell>
        <mxCell id="ClowfGeDwB7Z-Gp7cLXi-94" value="&lt;div&gt;+ setName(var1 : String) : void&lt;/div&gt;&lt;div&gt;+ setBirthdate(var2 : String) : void&amp;nbsp;&lt;/div&gt;&lt;div&gt;+ setRole() : void&lt;/div&gt;&lt;div&gt;+ setPassword(var3 : String) : void&lt;/div&gt;&lt;div&gt;+ getEmployee() : Employee&lt;/div&gt;" style="text;strokeColor=none;fillColor=none;align=left;verticalAlign=top;spacingLeft=4;spacingRight=4;overflow=hidden;rotatable=0;points=[[0,0.5],[1,0.5]];portConstraint=eastwest;whiteSpace=wrap;html=1;" parent="ClowfGeDwB7Z-Gp7cLXi-91" vertex="1">
          <mxGeometry y="58" width="220" height="82" as="geometry" />
        </mxCell>
        <mxCell id="9-IgjQardN9TOyDx4zbD-20" style="rounded=0;orthogonalLoop=1;jettySize=auto;html=1;entryX=0;entryY=0;entryDx=0;entryDy=0;endArrow=blockThin;endFill=0;dashed=1;dashPattern=8 8;endSize=14;" edge="1" parent="1" source="ClowfGeDwB7Z-Gp7cLXi-95" target="ClowfGeDwB7Z-Gp7cLXi-41">
          <mxGeometry relative="1" as="geometry" />
        </mxCell>
        <mxCell id="ClowfGeDwB7Z-Gp7cLXi-95" value="ManagerEmpBuilder" style="swimlane;fontStyle=1;align=center;verticalAlign=top;childLayout=stackLayout;horizontal=1;startSize=26;horizontalStack=0;resizeParent=1;resizeParentMax=0;resizeLast=0;collapsible=1;marginBottom=0;whiteSpace=wrap;html=1;" parent="1" vertex="1">
          <mxGeometry x="970" y="2170" width="220" height="150" as="geometry" />
        </mxCell>
        <mxCell id="ClowfGeDwB7Z-Gp7cLXi-96" value="&lt;div&gt;~ employee : Employee&lt;/div&gt;" style="text;strokeColor=none;fillColor=none;align=left;verticalAlign=top;spacingLeft=4;spacingRight=4;overflow=hidden;rotatable=0;points=[[0,0.5],[1,0.5]];portConstraint=eastwest;whiteSpace=wrap;html=1;" parent="ClowfGeDwB7Z-Gp7cLXi-95" vertex="1">
          <mxGeometry y="26" width="220" height="24" as="geometry" />
        </mxCell>
        <mxCell id="ClowfGeDwB7Z-Gp7cLXi-97" value="" style="line;strokeWidth=1;fillColor=none;align=left;verticalAlign=middle;spacingTop=-1;spacingLeft=3;spacingRight=3;rotatable=0;labelPosition=right;points=[];portConstraint=eastwest;strokeColor=inherit;" parent="ClowfGeDwB7Z-Gp7cLXi-95" vertex="1">
          <mxGeometry y="50" width="220" height="8" as="geometry" />
        </mxCell>
        <mxCell id="ClowfGeDwB7Z-Gp7cLXi-98" value="&lt;div&gt;+ ManagerEmpBuilder()&lt;br&gt;+ setName(var1 : String) : void&lt;/div&gt;&lt;div&gt;+ setBirthdate(var2 : String) : void&amp;nbsp;&lt;/div&gt;&lt;div&gt;+ setRole() : void&lt;/div&gt;&lt;div&gt;+ setPassword(var3 : String) : void&lt;/div&gt;&lt;div&gt;+ getEmployee() : Employee&lt;/div&gt;" style="text;strokeColor=none;fillColor=none;align=left;verticalAlign=top;spacingLeft=4;spacingRight=4;overflow=hidden;rotatable=0;points=[[0,0.5],[1,0.5]];portConstraint=eastwest;whiteSpace=wrap;html=1;" parent="ClowfGeDwB7Z-Gp7cLXi-95" vertex="1">
          <mxGeometry y="58" width="220" height="92" as="geometry" />
        </mxCell>
        <mxCell id="9-IgjQardN9TOyDx4zbD-21" style="rounded=0;orthogonalLoop=1;jettySize=auto;html=1;entryX=1;entryY=0;entryDx=0;entryDy=0;dashed=1;dashPattern=8 8;endArrow=blockThin;endFill=0;endSize=14;" edge="1" parent="1" source="ClowfGeDwB7Z-Gp7cLXi-99" target="ClowfGeDwB7Z-Gp7cLXi-41">
          <mxGeometry relative="1" as="geometry" />
        </mxCell>
        <mxCell id="ClowfGeDwB7Z-Gp7cLXi-99" value="SalerEmpBuilder" style="swimlane;fontStyle=1;align=center;verticalAlign=top;childLayout=stackLayout;horizontal=1;startSize=26;horizontalStack=0;resizeParent=1;resizeParentMax=0;resizeLast=0;collapsible=1;marginBottom=0;whiteSpace=wrap;html=1;" parent="1" vertex="1">
          <mxGeometry x="1430" y="2170" width="220" height="150" as="geometry" />
        </mxCell>
        <mxCell id="ClowfGeDwB7Z-Gp7cLXi-100" value="&lt;div&gt;~ employee : Employee&lt;/div&gt;" style="text;strokeColor=none;fillColor=none;align=left;verticalAlign=top;spacingLeft=4;spacingRight=4;overflow=hidden;rotatable=0;points=[[0,0.5],[1,0.5]];portConstraint=eastwest;whiteSpace=wrap;html=1;" parent="ClowfGeDwB7Z-Gp7cLXi-99" vertex="1">
          <mxGeometry y="26" width="220" height="24" as="geometry" />
        </mxCell>
        <mxCell id="ClowfGeDwB7Z-Gp7cLXi-101" value="" style="line;strokeWidth=1;fillColor=none;align=left;verticalAlign=middle;spacingTop=-1;spacingLeft=3;spacingRight=3;rotatable=0;labelPosition=right;points=[];portConstraint=eastwest;strokeColor=inherit;" parent="ClowfGeDwB7Z-Gp7cLXi-99" vertex="1">
          <mxGeometry y="50" width="220" height="8" as="geometry" />
        </mxCell>
        <mxCell id="ClowfGeDwB7Z-Gp7cLXi-102" value="&lt;div&gt;+ setName(var1 : String) : void&lt;/div&gt;&lt;div&gt;+ setBirthdate(var2 : String) : void&amp;nbsp;&lt;/div&gt;&lt;div&gt;+ setRole() : void&lt;/div&gt;&lt;div&gt;+ setPassword(var3 : String) : void&lt;/div&gt;&lt;div&gt;+ getEmployee() : Employee&lt;/div&gt;" style="text;strokeColor=none;fillColor=none;align=left;verticalAlign=top;spacingLeft=4;spacingRight=4;overflow=hidden;rotatable=0;points=[[0,0.5],[1,0.5]];portConstraint=eastwest;whiteSpace=wrap;html=1;" parent="ClowfGeDwB7Z-Gp7cLXi-99" vertex="1">
          <mxGeometry y="58" width="220" height="92" as="geometry" />
        </mxCell>
        <mxCell id="ClowfGeDwB7Z-Gp7cLXi-103" value="FrenchMovieBuilder" style="swimlane;fontStyle=1;align=center;verticalAlign=top;childLayout=stackLayout;horizontal=1;startSize=26;horizontalStack=0;resizeParent=1;resizeParentMax=0;resizeLast=0;collapsible=1;marginBottom=0;whiteSpace=wrap;html=1;" parent="1" vertex="1">
          <mxGeometry x="2110" y="1340" width="210" height="200" as="geometry" />
        </mxCell>
        <mxCell id="ClowfGeDwB7Z-Gp7cLXi-104" value="&lt;div&gt;~ movie : Movie&lt;/div&gt;" style="text;strokeColor=none;fillColor=none;align=left;verticalAlign=top;spacingLeft=4;spacingRight=4;overflow=hidden;rotatable=0;points=[[0,0.5],[1,0.5]];portConstraint=eastwest;whiteSpace=wrap;html=1;" parent="ClowfGeDwB7Z-Gp7cLXi-103" vertex="1">
          <mxGeometry y="26" width="210" height="24" as="geometry" />
        </mxCell>
        <mxCell id="ClowfGeDwB7Z-Gp7cLXi-105" value="" style="line;strokeWidth=1;fillColor=none;align=left;verticalAlign=middle;spacingTop=-1;spacingLeft=3;spacingRight=3;rotatable=0;labelPosition=right;points=[];portConstraint=eastwest;strokeColor=inherit;" parent="ClowfGeDwB7Z-Gp7cLXi-103" vertex="1">
          <mxGeometry y="50" width="210" height="8" as="geometry" />
        </mxCell>
        <mxCell id="ClowfGeDwB7Z-Gp7cLXi-106" value="&lt;div&gt;+ FrenchMovieBuilder()&lt;/div&gt;&lt;div&gt;+ setTitle(var1 : String) : void&lt;/div&gt;&lt;div&gt;+ setDuration(var2 : int) : void&lt;/div&gt;&lt;div&gt;+ setGenre(var3 : String) : void&lt;/div&gt;&lt;div&gt;+ setAgeRestriction(var4 : int) : void&amp;nbsp;&lt;/div&gt;&lt;div&gt;+ setPrice(var5 : double) : void&lt;/div&gt;&lt;div&gt;+ setSubtitles() : void&lt;/div&gt;&lt;div&gt;+ getMovie() : Movie&amp;nbsp;&lt;/div&gt;&lt;div&gt;+ reset() : void&lt;/div&gt;" style="text;strokeColor=none;fillColor=none;align=left;verticalAlign=top;spacingLeft=4;spacingRight=4;overflow=hidden;rotatable=0;points=[[0,0.5],[1,0.5]];portConstraint=eastwest;whiteSpace=wrap;html=1;" parent="ClowfGeDwB7Z-Gp7cLXi-103" vertex="1">
          <mxGeometry y="58" width="210" height="142" as="geometry" />
        </mxCell>
        <mxCell id="ClowfGeDwB7Z-Gp7cLXi-107" value="FrenchAvertismentBuilder" style="swimlane;fontStyle=1;align=center;verticalAlign=top;childLayout=stackLayout;horizontal=1;startSize=26;horizontalStack=0;resizeParent=1;resizeParentMax=0;resizeLast=0;collapsible=1;marginBottom=0;whiteSpace=wrap;html=1;" parent="1" vertex="1">
          <mxGeometry x="2550" y="2150" width="220" height="170" as="geometry" />
        </mxCell>
        <mxCell id="ClowfGeDwB7Z-Gp7cLXi-108" value="&lt;div&gt;~ advertisement : Advertisement&lt;/div&gt;" style="text;strokeColor=none;fillColor=none;align=left;verticalAlign=top;spacingLeft=4;spacingRight=4;overflow=hidden;rotatable=0;points=[[0,0.5],[1,0.5]];portConstraint=eastwest;whiteSpace=wrap;html=1;" parent="ClowfGeDwB7Z-Gp7cLXi-107" vertex="1">
          <mxGeometry y="26" width="220" height="24" as="geometry" />
        </mxCell>
        <mxCell id="ClowfGeDwB7Z-Gp7cLXi-109" value="" style="line;strokeWidth=1;fillColor=none;align=left;verticalAlign=middle;spacingTop=-1;spacingLeft=3;spacingRight=3;rotatable=0;labelPosition=right;points=[];portConstraint=eastwest;strokeColor=inherit;" parent="ClowfGeDwB7Z-Gp7cLXi-107" vertex="1">
          <mxGeometry y="50" width="220" height="8" as="geometry" />
        </mxCell>
        <mxCell id="ClowfGeDwB7Z-Gp7cLXi-110" value="&lt;div&gt;+ FrenchAvertisementBuilder()&lt;/div&gt;&lt;div&gt;+ setTitle(var1 : String) : void&lt;/div&gt;&lt;div&gt;+ setDuration(var2 : int) : void&lt;/div&gt;&lt;div&gt;+ setAgeRestriction(var3 : int) : void&amp;nbsp;&lt;/div&gt;&lt;div&gt;+ setSubtitles() : void&lt;/div&gt;&lt;div&gt;+ getAdvertisement() : Advertisement&amp;nbsp;&lt;/div&gt;&lt;div&gt;+ reset() : void&lt;/div&gt;" style="text;strokeColor=none;fillColor=none;align=left;verticalAlign=top;spacingLeft=4;spacingRight=4;overflow=hidden;rotatable=0;points=[[0,0.5],[1,0.5]];portConstraint=eastwest;whiteSpace=wrap;html=1;" parent="ClowfGeDwB7Z-Gp7cLXi-107" vertex="1">
          <mxGeometry y="58" width="220" height="112" as="geometry" />
        </mxCell>
        <mxCell id="ClowfGeDwB7Z-Gp7cLXi-111" value="EnglishAvertismentBuilder" style="swimlane;fontStyle=1;align=center;verticalAlign=top;childLayout=stackLayout;horizontal=1;startSize=26;horizontalStack=0;resizeParent=1;resizeParentMax=0;resizeLast=0;collapsible=1;marginBottom=0;whiteSpace=wrap;html=1;" parent="1" vertex="1">
          <mxGeometry x="2550" y="1690" width="220" height="170" as="geometry" />
        </mxCell>
        <mxCell id="ClowfGeDwB7Z-Gp7cLXi-112" value="&lt;div&gt;~ advertisement : Advertisement&lt;/div&gt;" style="text;strokeColor=none;fillColor=none;align=left;verticalAlign=top;spacingLeft=4;spacingRight=4;overflow=hidden;rotatable=0;points=[[0,0.5],[1,0.5]];portConstraint=eastwest;whiteSpace=wrap;html=1;" parent="ClowfGeDwB7Z-Gp7cLXi-111" vertex="1">
          <mxGeometry y="26" width="220" height="24" as="geometry" />
        </mxCell>
        <mxCell id="ClowfGeDwB7Z-Gp7cLXi-113" value="" style="line;strokeWidth=1;fillColor=none;align=left;verticalAlign=middle;spacingTop=-1;spacingLeft=3;spacingRight=3;rotatable=0;labelPosition=right;points=[];portConstraint=eastwest;strokeColor=inherit;" parent="ClowfGeDwB7Z-Gp7cLXi-111" vertex="1">
          <mxGeometry y="50" width="220" height="8" as="geometry" />
        </mxCell>
        <mxCell id="ClowfGeDwB7Z-Gp7cLXi-114" value="&lt;div&gt;+ EnglishAvertisementBuilder()&lt;/div&gt;&lt;div&gt;+ setTitle(var1 : String) : void&lt;/div&gt;&lt;div&gt;+ setDuration(var2 : int) : void&lt;/div&gt;&lt;div&gt;+ setAgeRestriction(var3 : int) : void&amp;nbsp;&lt;/div&gt;&lt;div&gt;+ setSubtitles() : void&lt;/div&gt;&lt;div&gt;+ getAdvertisement() : Advertisement&amp;nbsp;&lt;/div&gt;&lt;div&gt;+ reset() : void&lt;/div&gt;" style="text;strokeColor=none;fillColor=none;align=left;verticalAlign=top;spacingLeft=4;spacingRight=4;overflow=hidden;rotatable=0;points=[[0,0.5],[1,0.5]];portConstraint=eastwest;whiteSpace=wrap;html=1;" parent="ClowfGeDwB7Z-Gp7cLXi-111" vertex="1">
          <mxGeometry y="58" width="220" height="112" as="geometry" />
        </mxCell>
        <mxCell id="ClowfGeDwB7Z-Gp7cLXi-115" value="MediaContent" style="swimlane;fontStyle=1;align=center;verticalAlign=top;childLayout=stackLayout;horizontal=1;startSize=26;horizontalStack=0;resizeParent=1;resizeParentMax=0;resizeLast=0;collapsible=1;marginBottom=0;whiteSpace=wrap;html=1;" parent="1" vertex="1">
          <mxGeometry x="1920" y="1950" width="270" height="310" as="geometry" />
        </mxCell>
        <mxCell id="ClowfGeDwB7Z-Gp7cLXi-116" value="&lt;div&gt;# subtitles : Language&amp;nbsp;&lt;/div&gt;&lt;div&gt;# ageRestriction : int&amp;nbsp;&lt;/div&gt;&lt;div&gt;# duration : int&lt;/div&gt;&lt;div&gt;# title : String&amp;nbsp;&lt;/div&gt;&lt;div&gt;# id : String&lt;/div&gt;" style="text;strokeColor=none;fillColor=none;align=left;verticalAlign=top;spacingLeft=4;spacingRight=4;overflow=hidden;rotatable=0;points=[[0,0.5],[1,0.5]];portConstraint=eastwest;whiteSpace=wrap;html=1;" parent="ClowfGeDwB7Z-Gp7cLXi-115" vertex="1">
          <mxGeometry y="26" width="270" height="84" as="geometry" />
        </mxCell>
        <mxCell id="ClowfGeDwB7Z-Gp7cLXi-117" value="" style="line;strokeWidth=1;fillColor=none;align=left;verticalAlign=middle;spacingTop=-1;spacingLeft=3;spacingRight=3;rotatable=0;labelPosition=right;points=[];portConstraint=eastwest;strokeColor=inherit;" parent="ClowfGeDwB7Z-Gp7cLXi-115" vertex="1">
          <mxGeometry y="110" width="270" height="8" as="geometry" />
        </mxCell>
        <mxCell id="ClowfGeDwB7Z-Gp7cLXi-118" value="&lt;div&gt;+ MediaContent()&lt;/div&gt;&lt;div&gt;+ getId() : String&lt;/div&gt;&lt;div&gt;+ setId(id : String) : void&lt;/div&gt;&lt;div&gt;+ getTitle() : String&lt;/div&gt;&lt;div&gt;+ setTitle(title : String) : void&lt;/div&gt;&lt;div&gt;+ getDuration() : int&lt;/div&gt;&lt;div&gt;+ setDuration (duration : int) : void&lt;/div&gt;&lt;div&gt;+ getAgeRestriction() : int&lt;/div&gt;&lt;div&gt;+ setAgeRestriction(ageRestriction : int) : void&amp;nbsp;&lt;/div&gt;&lt;div&gt;+ getSubtitles() : Language&lt;/div&gt;&lt;div&gt;+ setSubtitles(subtitles : Language) : void&lt;/div&gt;&lt;div&gt;+ display() : void&lt;/div&gt;" style="text;strokeColor=none;fillColor=none;align=left;verticalAlign=top;spacingLeft=4;spacingRight=4;overflow=hidden;rotatable=0;points=[[0,0.5],[1,0.5]];portConstraint=eastwest;whiteSpace=wrap;html=1;" parent="ClowfGeDwB7Z-Gp7cLXi-115" vertex="1">
          <mxGeometry y="118" width="270" height="192" as="geometry" />
        </mxCell>
        <mxCell id="ClowfGeDwB7Z-Gp7cLXi-120" value="Complaint" style="swimlane;fontStyle=1;align=center;verticalAlign=top;childLayout=stackLayout;horizontal=1;startSize=26;horizontalStack=0;resizeParent=1;resizeParentMax=0;resizeLast=0;collapsible=1;marginBottom=0;whiteSpace=wrap;html=1;" parent="1" vertex="1">
          <mxGeometry x="510" y="1660" width="400" height="380" as="geometry" />
        </mxCell>
        <mxCell id="ClowfGeDwB7Z-Gp7cLXi-121" value="&lt;div&gt;- resolution : String&lt;/div&gt;&lt;div&gt;- assignedEmployeeId : String&amp;nbsp;&lt;/div&gt;&lt;div&gt;- status : String&lt;/div&gt;&lt;div&gt;- severityLevel : int&lt;/div&gt;&lt;div&gt;- description : String&amp;nbsp;&lt;/div&gt;&lt;div&gt;- customerId : String&lt;/div&gt;&lt;div&gt;- id : int&lt;/div&gt;" style="text;strokeColor=none;fillColor=none;align=left;verticalAlign=top;spacingLeft=4;spacingRight=4;overflow=hidden;rotatable=0;points=[[0,0.5],[1,0.5]];portConstraint=eastwest;whiteSpace=wrap;html=1;" parent="ClowfGeDwB7Z-Gp7cLXi-120" vertex="1">
          <mxGeometry y="26" width="400" height="114" as="geometry" />
        </mxCell>
        <mxCell id="ClowfGeDwB7Z-Gp7cLXi-122" value="" style="line;strokeWidth=1;fillColor=none;align=left;verticalAlign=middle;spacingTop=-1;spacingLeft=3;spacingRight=3;rotatable=0;labelPosition=right;points=[];portConstraint=eastwest;strokeColor=inherit;" parent="ClowfGeDwB7Z-Gp7cLXi-120" vertex="1">
          <mxGeometry y="140" width="400" height="8" as="geometry" />
        </mxCell>
        <mxCell id="ClowfGeDwB7Z-Gp7cLXi-123" value="&lt;div&gt;+ Complaint(customerId : String, description : String, severityLevel : int)&amp;nbsp;&lt;/div&gt;&lt;div&gt;+ getId() : int&lt;/div&gt;&lt;div&gt;+ setId(id : int) : void&lt;/div&gt;&lt;div&gt;+ setCustomerId(customerId : String) : void&lt;/div&gt;&lt;div&gt;+ setDescription(description : String) : void&lt;/div&gt;&lt;div&gt;+ setSeverityLevel(severityLevel : int) : void&lt;/div&gt;&lt;div&gt;+ getCustomerId() : String&lt;/div&gt;&lt;div&gt;+ getDescription() : String&lt;/div&gt;&lt;div&gt;+ getSeverityLevel() : int&lt;/div&gt;&lt;div&gt;+ getStatus() : String&lt;/div&gt;&lt;div&gt;+ setStatus(status : String) : void&lt;/div&gt;&lt;div&gt;+ getAssignedEmployeeId() : String&lt;/div&gt;&lt;div&gt;+ setAssignedEmployeeId(assignedEmployeeId : String) : void&lt;/div&gt;&lt;div&gt;+ getResolution() : String&lt;/div&gt;&lt;div&gt;+ setResolution(resolution : String) : void&lt;/div&gt;" style="text;strokeColor=none;fillColor=none;align=left;verticalAlign=top;spacingLeft=4;spacingRight=4;overflow=hidden;rotatable=0;points=[[0,0.5],[1,0.5]];portConstraint=eastwest;whiteSpace=wrap;html=1;" parent="ClowfGeDwB7Z-Gp7cLXi-120" vertex="1">
          <mxGeometry y="148" width="400" height="232" as="geometry" />
        </mxCell>
        <mxCell id="9-IgjQardN9TOyDx4zbD-3" style="rounded=0;orthogonalLoop=1;jettySize=auto;html=1;entryX=1.003;entryY=0.409;entryDx=0;entryDy=0;entryPerimeter=0;endArrow=diamondThin;endFill=1;endSize=14;" edge="1" parent="1" source="ClowfGeDwB7Z-Gp7cLXi-49" target="ClowfGeDwB7Z-Gp7cLXi-2">
          <mxGeometry relative="1" as="geometry" />
        </mxCell>
        <mxCell id="9-IgjQardN9TOyDx4zbD-4" style="rounded=0;orthogonalLoop=1;jettySize=auto;html=1;entryX=0.205;entryY=1.09;entryDx=0;entryDy=0;entryPerimeter=0;endArrow=blockThin;endFill=0;endSize=14;" edge="1" parent="1" source="ClowfGeDwB7Z-Gp7cLXi-67" target="ClowfGeDwB7Z-Gp7cLXi-52">
          <mxGeometry relative="1" as="geometry" />
        </mxCell>
        <mxCell id="9-IgjQardN9TOyDx4zbD-5" style="rounded=0;orthogonalLoop=1;jettySize=auto;html=1;endArrow=blockThin;endFill=0;endSize=14;" edge="1" parent="1" source="ClowfGeDwB7Z-Gp7cLXi-23" target="ClowfGeDwB7Z-Gp7cLXi-52">
          <mxGeometry relative="1" as="geometry" />
        </mxCell>
        <mxCell id="9-IgjQardN9TOyDx4zbD-8" style="rounded=0;orthogonalLoop=1;jettySize=auto;html=1;entryX=1;entryY=0;entryDx=0;entryDy=0;endArrow=diamondThin;endFill=1;endSize=14;" edge="1" parent="1" source="ClowfGeDwB7Z-Gp7cLXi-27" target="ClowfGeDwB7Z-Gp7cLXi-63">
          <mxGeometry relative="1" as="geometry" />
        </mxCell>
        <mxCell id="9-IgjQardN9TOyDx4zbD-10" style="rounded=0;orthogonalLoop=1;jettySize=auto;html=1;entryX=-0.034;entryY=0.87;entryDx=0;entryDy=0;entryPerimeter=0;endArrow=diamondThin;endFill=1;exitX=1.004;exitY=0.372;exitDx=0;exitDy=0;exitPerimeter=0;endSize=14;" edge="1" parent="1" source="ClowfGeDwB7Z-Gp7cLXi-4" target="ClowfGeDwB7Z-Gp7cLXi-64">
          <mxGeometry relative="1" as="geometry" />
        </mxCell>
        <mxCell id="9-IgjQardN9TOyDx4zbD-11" style="rounded=0;orthogonalLoop=1;jettySize=auto;html=1;entryX=0.492;entryY=1.027;entryDx=0;entryDy=0;entryPerimeter=0;endArrow=diamondThin;endFill=1;endSize=14;" edge="1" parent="1" source="ClowfGeDwB7Z-Gp7cLXi-53" target="ClowfGeDwB7Z-Gp7cLXi-66">
          <mxGeometry relative="1" as="geometry" />
        </mxCell>
        <mxCell id="9-IgjQardN9TOyDx4zbD-13" style="rounded=0;orthogonalLoop=1;jettySize=auto;html=1;entryX=0.473;entryY=0.009;entryDx=0;entryDy=0;entryPerimeter=0;endArrow=blockThin;endFill=0;endSize=14;" edge="1" parent="1" source="ClowfGeDwB7Z-Gp7cLXi-19" target="ClowfGeDwB7Z-Gp7cLXi-83">
          <mxGeometry relative="1" as="geometry" />
        </mxCell>
        <mxCell id="9-IgjQardN9TOyDx4zbD-14" style="rounded=0;orthogonalLoop=1;jettySize=auto;html=1;entryX=0.473;entryY=1.015;entryDx=0;entryDy=0;entryPerimeter=0;endArrow=blockThin;endFill=0;endSize=14;" edge="1" parent="1" source="ClowfGeDwB7Z-Gp7cLXi-87" target="ClowfGeDwB7Z-Gp7cLXi-86">
          <mxGeometry relative="1" as="geometry" />
        </mxCell>
        <mxCell id="9-IgjQardN9TOyDx4zbD-16" style="rounded=0;orthogonalLoop=1;jettySize=auto;html=1;endArrow=blockThin;endFill=0;endSize=14;dashed=1;dashPattern=8 8;exitX=0.525;exitY=1.041;exitDx=0;exitDy=0;exitPerimeter=0;" edge="1" parent="1" source="ClowfGeDwB7Z-Gp7cLXi-94" target="ClowfGeDwB7Z-Gp7cLXi-41">
          <mxGeometry relative="1" as="geometry" />
        </mxCell>
        <mxCell id="9-IgjQardN9TOyDx4zbD-17" style="rounded=0;orthogonalLoop=1;jettySize=auto;html=1;entryX=0.5;entryY=0;entryDx=0;entryDy=0;endArrow=diamondThin;endFill=1;endSize=14;" edge="1" parent="1" source="ClowfGeDwB7Z-Gp7cLXi-41" target="ClowfGeDwB7Z-Gp7cLXi-59">
          <mxGeometry relative="1" as="geometry" />
        </mxCell>
        <mxCell id="9-IgjQardN9TOyDx4zbD-18" style="rounded=0;orthogonalLoop=1;jettySize=auto;html=1;entryX=0.5;entryY=0;entryDx=0;entryDy=0;endArrow=diamondThin;endFill=1;endSize=14;" edge="1" parent="1" source="ClowfGeDwB7Z-Gp7cLXi-90" target="ClowfGeDwB7Z-Gp7cLXi-95">
          <mxGeometry relative="1" as="geometry" />
        </mxCell>
        <mxCell id="9-IgjQardN9TOyDx4zbD-19" style="rounded=0;orthogonalLoop=1;jettySize=auto;html=1;entryX=0.545;entryY=0;entryDx=0;entryDy=0;entryPerimeter=0;endArrow=diamondThin;endFill=1;endSize=14;" edge="1" parent="1" source="ClowfGeDwB7Z-Gp7cLXi-90" target="ClowfGeDwB7Z-Gp7cLXi-99">
          <mxGeometry relative="1" as="geometry" />
        </mxCell>
        <mxCell id="9-IgjQardN9TOyDx4zbD-22" style="rounded=0;orthogonalLoop=1;jettySize=auto;html=1;entryX=0.5;entryY=0;entryDx=0;entryDy=0;startArrow=diamondThin;startFill=1;endArrow=none;endFill=0;startSize=14;" edge="1" parent="1" source="ClowfGeDwB7Z-Gp7cLXi-22" target="ClowfGeDwB7Z-Gp7cLXi-71">
          <mxGeometry relative="1" as="geometry" />
        </mxCell>
        <mxCell id="9-IgjQardN9TOyDx4zbD-23" style="rounded=0;orthogonalLoop=1;jettySize=auto;html=1;entryX=0.482;entryY=1.043;entryDx=0;entryDy=0;entryPerimeter=0;endArrow=diamondThin;endFill=1;endSize=14;" edge="1" parent="1" source="ClowfGeDwB7Z-Gp7cLXi-39" target="ClowfGeDwB7Z-Gp7cLXi-18">
          <mxGeometry relative="1" as="geometry" />
        </mxCell>
        <mxCell id="9-IgjQardN9TOyDx4zbD-24" style="rounded=0;orthogonalLoop=1;jettySize=auto;html=1;entryX=0.458;entryY=1.033;entryDx=0;entryDy=0;entryPerimeter=0;endArrow=blockThin;endFill=0;dashed=1;dashPattern=8 8;endSize=14;" edge="1" parent="1" source="ClowfGeDwB7Z-Gp7cLXi-31" target="ClowfGeDwB7Z-Gp7cLXi-40">
          <mxGeometry relative="1" as="geometry" />
        </mxCell>
        <mxCell id="9-IgjQardN9TOyDx4zbD-25" style="rounded=0;orthogonalLoop=1;jettySize=auto;html=1;entryX=0.602;entryY=1.05;entryDx=0;entryDy=0;entryPerimeter=0;endArrow=blockThin;endFill=0;dashed=1;dashPattern=8 8;endSize=14;" edge="1" parent="1" source="ClowfGeDwB7Z-Gp7cLXi-103" target="ClowfGeDwB7Z-Gp7cLXi-40">
          <mxGeometry relative="1" as="geometry" />
        </mxCell>
        <mxCell id="9-IgjQardN9TOyDx4zbD-26" style="rounded=0;orthogonalLoop=1;jettySize=auto;html=1;entryX=0.566;entryY=1.031;entryDx=0;entryDy=0;entryPerimeter=0;endArrow=diamondThin;endFill=1;endSize=14;exitX=0.412;exitY=-0.017;exitDx=0;exitDy=0;exitPerimeter=0;" edge="1" parent="1" source="ClowfGeDwB7Z-Gp7cLXi-35" target="ClowfGeDwB7Z-Gp7cLXi-34">
          <mxGeometry relative="1" as="geometry" />
        </mxCell>
        <mxCell id="9-IgjQardN9TOyDx4zbD-27" style="rounded=0;orthogonalLoop=1;jettySize=auto;html=1;entryX=0.56;entryY=1.039;entryDx=0;entryDy=0;entryPerimeter=0;endArrow=diamondThin;endFill=1;exitX=0.646;exitY=-0.011;exitDx=0;exitDy=0;exitPerimeter=0;endSize=14;" edge="1" parent="1" source="ClowfGeDwB7Z-Gp7cLXi-35" target="ClowfGeDwB7Z-Gp7cLXi-106">
          <mxGeometry relative="1" as="geometry" />
        </mxCell>
        <mxCell id="9-IgjQardN9TOyDx4zbD-28" style="rounded=0;orthogonalLoop=1;jettySize=auto;html=1;endArrow=blockThin;endFill=0;endSize=14;" edge="1" parent="1" source="ClowfGeDwB7Z-Gp7cLXi-35">
          <mxGeometry relative="1" as="geometry">
            <mxPoint x="2060" y="1950" as="targetPoint" />
          </mxGeometry>
        </mxCell>
        <mxCell id="9-IgjQardN9TOyDx4zbD-29" style="rounded=0;orthogonalLoop=1;jettySize=auto;html=1;entryX=1.012;entryY=0.59;entryDx=0;entryDy=0;entryPerimeter=0;endArrow=blockThin;endFill=0;endSize=14;" edge="1" parent="1" source="ClowfGeDwB7Z-Gp7cLXi-77" target="ClowfGeDwB7Z-Gp7cLXi-116">
          <mxGeometry relative="1" as="geometry" />
        </mxCell>
        <mxCell id="9-IgjQardN9TOyDx4zbD-30" style="rounded=0;orthogonalLoop=1;jettySize=auto;html=1;entryX=1.008;entryY=0.398;entryDx=0;entryDy=0;entryPerimeter=0;endArrow=diamondThin;endFill=1;endSize=14;" edge="1" parent="1" source="ClowfGeDwB7Z-Gp7cLXi-73" target="ClowfGeDwB7Z-Gp7cLXi-118">
          <mxGeometry relative="1" as="geometry" />
        </mxCell>
        <mxCell id="9-IgjQardN9TOyDx4zbD-31" style="rounded=0;orthogonalLoop=1;jettySize=auto;html=1;entryX=-0.011;entryY=0.286;entryDx=0;entryDy=0;entryPerimeter=0;endArrow=diamondThin;endFill=1;endSize=14;" edge="1" parent="1" source="ClowfGeDwB7Z-Gp7cLXi-77" target="ClowfGeDwB7Z-Gp7cLXi-114">
          <mxGeometry relative="1" as="geometry" />
        </mxCell>
        <mxCell id="9-IgjQardN9TOyDx4zbD-32" style="rounded=0;orthogonalLoop=1;jettySize=auto;html=1;entryX=-0.021;entryY=0.052;entryDx=0;entryDy=0;entryPerimeter=0;endArrow=diamondThin;endFill=1;endSize=14;" edge="1" parent="1" source="ClowfGeDwB7Z-Gp7cLXi-77" target="ClowfGeDwB7Z-Gp7cLXi-110">
          <mxGeometry relative="1" as="geometry" />
        </mxCell>
        <mxCell id="9-IgjQardN9TOyDx4zbD-33" style="rounded=0;orthogonalLoop=1;jettySize=auto;html=1;entryX=0.549;entryY=1.053;entryDx=0;entryDy=0;entryPerimeter=0;dashed=1;dashPattern=8 8;endArrow=blockThin;endFill=0;endSize=14;" edge="1" parent="1" source="ClowfGeDwB7Z-Gp7cLXi-107" target="ClowfGeDwB7Z-Gp7cLXi-82">
          <mxGeometry relative="1" as="geometry" />
        </mxCell>
        <mxCell id="9-IgjQardN9TOyDx4zbD-34" style="rounded=0;orthogonalLoop=1;jettySize=auto;html=1;entryX=0.555;entryY=0.014;entryDx=0;entryDy=0;entryPerimeter=0;dashed=1;dashPattern=8 8;endArrow=blockThin;endFill=0;endSize=14;" edge="1" parent="1" source="ClowfGeDwB7Z-Gp7cLXi-111" target="ClowfGeDwB7Z-Gp7cLXi-81">
          <mxGeometry relative="1" as="geometry" />
        </mxCell>
        <mxCell id="9-IgjQardN9TOyDx4zbD-35" style="rounded=0;orthogonalLoop=1;jettySize=auto;html=1;entryX=0;entryY=0.192;entryDx=0;entryDy=0;entryPerimeter=0;endArrow=diamondThin;endFill=1;endSize=14;" edge="1" parent="1" source="ClowfGeDwB7Z-Gp7cLXi-82" target="ClowfGeDwB7Z-Gp7cLXi-58">
          <mxGeometry relative="1" as="geometry" />
        </mxCell>
        <mxCell id="9-IgjQardN9TOyDx4zbD-36" style="rounded=0;orthogonalLoop=1;jettySize=auto;html=1;entryX=1;entryY=0.288;entryDx=0;entryDy=0;entryPerimeter=0;endArrow=diamondThin;endFill=1;endSize=14;" edge="1" parent="1" source="ClowfGeDwB7Z-Gp7cLXi-76" target="ClowfGeDwB7Z-Gp7cLXi-90">
          <mxGeometry relative="1" as="geometry" />
        </mxCell>
      </root>
    </mxGraphModel>
  </diagram>
</mxfile>
